#N canvas 616 419 1584 536 10;
#X obj 111 70 tgl 15 0 empty empty empty 17 7 0 10 -262144 -1 -1 0
1;
#X obj 99 43 inlet;
#X obj 708 456 outlet;
#X obj 30 193 vsl 15 128 0 128 0 0 empty empty empty 0 -9 0 10 -262144
-1 -1 0 1;
#X obj 119 196 random 128;
#X obj 119 277 list append;
#X obj 188 219 + 1000;
#X obj 120 300 line;
#X obj 78 197 delay;
#X obj 78 244 bng 15 250 50 0 empty empty empty 17 7 0 10 -262144 -1
-1;
#X obj 100 133 spigot;
#X obj 162 132 tgl 15 0 empty empty empty 17 7 0 10 -262144 -1 -1 0
1;
#X obj 163 158 select 1;
#X floatatom 195 251 5 0 0 0 - - -, f 5;
#X floatatom 127 251 5 0 0 0 - - -, f 5;
#X obj 188 197 random 25000;
#X obj 280 225 +;
#X obj 270 197 random 30000;
#X obj 100 159 t b b b b;
#X floatatom 281 253 5 0 0 0 - - -, f 5;
#X obj 362 202 vsl 15 128 0 128 0 0 empty empty empty 0 -9 0 10 -262144
-1 -1 0 1;
#X obj 451 205 random 128;
#X obj 451 286 list append;
#X obj 520 228 + 1000;
#X obj 452 309 line;
#X obj 410 206 delay;
#X obj 410 253 bng 15 250 50 0 empty empty empty 17 7 0 10 -262144
-1 -1;
#X obj 432 142 spigot;
#X obj 494 141 tgl 15 0 empty empty empty 17 7 0 10 -262144 -1 -1 0
1;
#X obj 495 167 select 1;
#X floatatom 527 260 5 0 0 0 - - -, f 5;
#X floatatom 459 260 5 0 0 0 - - -, f 5;
#X obj 520 206 random 25000;
#X obj 612 234 +;
#X obj 602 206 random 30000;
#X obj 432 168 t b b b b;
#X floatatom 613 262 5 0 0 0 - - -, f 5;
#X obj 695 203 vsl 15 128 0 128 0 0 empty empty empty 0 -9 0 10 -262144
-1 -1 0 1;
#X obj 784 206 random 128;
#X obj 784 287 list append;
#X obj 853 229 + 1000;
#X obj 785 310 line;
#X obj 743 207 delay;
#X obj 743 254 bng 15 250 50 0 empty empty empty 17 7 0 10 -262144
-1 -1;
#X obj 765 143 spigot;
#X obj 827 142 tgl 15 0 empty empty empty 17 7 0 10 -262144 -1 -1 0
1;
#X obj 828 168 select 1;
#X floatatom 860 261 5 0 0 0 - - -, f 5;
#X floatatom 792 261 5 0 0 0 - - -, f 5;
#X obj 853 207 random 25000;
#X obj 945 235 +;
#X obj 935 207 random 30000;
#X obj 765 169 t b b b b;
#X floatatom 946 263 5 0 0 0 - - -, f 5;
#X obj 1022 199 vsl 15 128 0 128 0 0 empty empty empty 0 -9 0 10 -262144
-1 -1 0 1;
#X obj 1111 202 random 128;
#X obj 1111 283 list append;
#X obj 1180 225 + 1000;
#X obj 1112 306 line;
#X obj 1070 203 delay;
#X obj 1070 250 bng 15 250 50 0 empty empty empty 17 7 0 10 -262144
-1 -1;
#X obj 1092 139 spigot;
#X obj 1154 138 tgl 15 0 empty empty empty 17 7 0 10 -262144 -1 -1
0 1;
#X obj 1155 164 select 1;
#X floatatom 1187 257 5 0 0 0 - - -, f 5;
#X floatatom 1119 257 5 0 0 0 - - -, f 5;
#X obj 1180 203 random 25000;
#X obj 1272 231 +;
#X obj 1262 203 random 30000;
#X obj 1092 165 t b b b b;
#X floatatom 1273 259 5 0 0 0 - - -, f 5;
#X obj 501 397 list prepend /vol;
#X obj 619 397 list prepend /int;
#X obj 737 400 list prepend /hap;
#X obj 855 399 list prepend /jaz;
#X connect 0 0 11 0;
#X connect 0 0 28 0;
#X connect 0 0 45 0;
#X connect 0 0 62 0;
#X connect 1 0 0 0;
#X connect 4 0 5 0;
#X connect 4 0 14 0;
#X connect 5 0 7 0;
#X connect 6 0 5 1;
#X connect 6 0 13 0;
#X connect 6 0 16 0;
#X connect 7 0 3 0;
#X connect 7 0 71 0;
#X connect 8 0 9 0;
#X connect 9 0 10 0;
#X connect 10 0 18 0;
#X connect 11 0 10 1;
#X connect 11 0 12 0;
#X connect 12 0 18 0;
#X connect 15 0 6 0;
#X connect 16 0 8 1;
#X connect 17 0 16 1;
#X connect 17 0 19 0;
#X connect 18 0 8 0;
#X connect 18 1 4 0;
#X connect 18 2 15 0;
#X connect 18 3 17 0;
#X connect 21 0 22 0;
#X connect 21 0 31 0;
#X connect 22 0 24 0;
#X connect 23 0 22 1;
#X connect 23 0 30 0;
#X connect 23 0 33 0;
#X connect 24 0 20 0;
#X connect 24 0 72 0;
#X connect 25 0 26 0;
#X connect 26 0 27 0;
#X connect 27 0 35 0;
#X connect 28 0 27 1;
#X connect 28 0 29 0;
#X connect 29 0 35 0;
#X connect 32 0 23 0;
#X connect 33 0 25 1;
#X connect 34 0 33 1;
#X connect 34 0 36 0;
#X connect 35 0 25 0;
#X connect 35 1 21 0;
#X connect 35 2 32 0;
#X connect 35 3 34 0;
#X connect 38 0 39 0;
#X connect 38 0 48 0;
#X connect 39 0 41 0;
#X connect 40 0 39 1;
#X connect 40 0 47 0;
#X connect 40 0 50 0;
#X connect 41 0 37 0;
#X connect 41 0 73 0;
#X connect 42 0 43 0;
#X connect 43 0 44 0;
#X connect 44 0 52 0;
#X connect 45 0 44 1;
#X connect 45 0 46 0;
#X connect 46 0 52 0;
#X connect 49 0 40 0;
#X connect 50 0 42 1;
#X connect 51 0 50 1;
#X connect 51 0 53 0;
#X connect 52 0 42 0;
#X connect 52 1 38 0;
#X connect 52 2 49 0;
#X connect 52 3 51 0;
#X connect 55 0 56 0;
#X connect 55 0 65 0;
#X connect 56 0 58 0;
#X connect 57 0 56 1;
#X connect 57 0 64 0;
#X connect 57 0 67 0;
#X connect 58 0 54 0;
#X connect 58 0 74 0;
#X connect 59 0 60 0;
#X connect 60 0 61 0;
#X connect 61 0 69 0;
#X connect 62 0 61 1;
#X connect 62 0 63 0;
#X connect 63 0 69 0;
#X connect 66 0 57 0;
#X connect 67 0 59 1;
#X connect 68 0 67 1;
#X connect 68 0 70 0;
#X connect 69 0 59 0;
#X connect 69 1 55 0;
#X connect 69 2 66 0;
#X connect 69 3 68 0;
#X connect 71 0 2 0;
#X connect 72 0 2 0;
#X connect 73 0 2 0;
#X connect 74 0 2 0;
