#N canvas 303 353 450 300 10;
#X obj 25 12 inlet;
#X obj 39 252 outlet;
#X obj 23 98 f;
#X obj 66 121 % \$1;
#X obj 66 101 + 1;
#X connect 0 0 2 0;
#X connect 2 0 1 0;
#X connect 2 0 4 0;
#X connect 3 0 2 1;
#X connect 4 0 3 0;
