#N canvas 802 154 1024 464 10;
#X obj 77 81 inlet;
#X obj 320 37 inlet;
#X obj 320 59 / 127;
#X obj 244 123 moses 1;
#X obj 299 122 moses 2;
#X obj 356 122 moses 3;
#X obj 65 295 % 16;
#X obj 65 317 select 0;
#X obj 143 295 % 8;
#X obj 222 292 % 16;
#X obj 222 316 select 0 6 12;
#X obj 221 342 1;
#X obj 317 311 select 0;
#X obj 317 289 % 4;
#X obj 317 345 1;
#X obj 381 287 % 16;
#X obj 402 342 1;
#X obj 381 311 select 0 3 6 9 12;
#X obj 499 285 % 16;
#X obj 520 340 1;
#X obj 499 309 select 0 3 6 8 11 14;
#X obj 638 286 % 16;
#X obj 674 337 1;
#X obj 638 310 select 0 3 6 8 10 12 14;
#X obj 812 289 % 2;
#X obj 811 324 select 0;
#X obj 66 268 spigot;
#X obj 111 269 tgl 15 0 empty empty empty 17 7 0 10 -262144 -1 -1 0
1;
#X obj 143 269 spigot;
#X obj 188 270 tgl 15 0 empty empty empty 17 7 0 10 -262144 -1 -1 0
1;
#X obj 221 268 spigot;
#X obj 266 269 tgl 15 0 empty empty empty 17 7 0 10 -262144 -1 -1 0
1;
#X obj 309 268 spigot;
#X obj 354 269 tgl 15 0 empty empty empty 17 7 0 10 -262144 -1 -1 3.31773
1;
#X obj 383 266 spigot;
#X obj 428 267 tgl 15 0 empty empty empty 17 7 0 10 -262144 -1 -1 0
1;
#X obj 500 261 spigot;
#X obj 545 262 tgl 15 0 empty empty empty 17 7 0 10 -262144 -1 -1 0
1;
#X obj 636 262 spigot;
#X obj 681 263 tgl 15 0 empty empty empty 17 7 0 10 -262144 -1 -1 0
1;
#X obj 806 260 spigot;
#X obj 851 261 tgl 15 0 empty empty empty 17 7 0 10 -262144 -1 -1 0
1;
#X obj 320 81 * 8;
#X obj 409 122 moses 4;
#X obj 463 122 moses 5;
#X obj 516 123 moses 6;
#X obj 567 123 moses 7;
#X obj 620 123 moses 8;
#X floatatom 273 75 5 0 0 0 - - -, f 5;
#X obj 84 238 r \$0-b1;
#X obj 160 241 r \$0-b2;
#X obj 899 369 outlet;
#X obj 897 344 r \$0-out;
#X obj 80 105 s \$0-in;
#X obj 62 340 s \$0-out;
#X obj 142 344 s \$0-out;
#X obj 223 367 s \$0-out;
#X obj 402 369 s \$0-out;
#X obj 313 370 s \$0-out;
#X obj 515 370 s \$0-out;
#X obj 669 363 s \$0-out;
#X obj 814 355 s \$0-out;
#X obj 63 206 r \$0-in;
#X obj 217 209 r \$0-in;
#X obj 137 210 r \$0-in;
#X obj 311 213 r \$0-in;
#X obj 383 211 r \$0-in;
#X obj 628 215 r \$0-in;
#X obj 502 211 r \$0-in;
#X obj 804 215 r \$0-in;
#X obj 240 238 r \$0-b3;
#X obj 321 241 r \$0-b4;
#X obj 399 239 r \$0-b5;
#X obj 521 230 r \$0-b6;
#X obj 817 237 r \$0-b8;
#X obj 655 234 r \$0-b7;
#X obj 248 183 s \$0-b1;
#X obj 307 182 s \$0-b2;
#X obj 360 180 s \$0-b3;
#X obj 415 180 s \$0-b4;
#X obj 469 176 s \$0-b5;
#X obj 521 175 s \$0-b6;
#X obj 576 173 s \$0-b7;
#X obj 631 172 s \$0-b8;
#X msg 269 149 0;
#X msg 324 150 0;
#X msg 379 151 0;
#X msg 432 150 0;
#X msg 489 146 0;
#X msg 539 149 0;
#X msg 587 146 0;
#X msg 651 147 0;
#X obj 143 316 select 0;
#X connect 0 0 53 0;
#X connect 1 0 2 0;
#X connect 2 0 42 0;
#X connect 3 0 76 0;
#X connect 3 0 84 0;
#X connect 3 1 4 0;
#X connect 4 0 77 0;
#X connect 4 0 85 0;
#X connect 4 1 5 0;
#X connect 5 0 78 0;
#X connect 5 0 86 0;
#X connect 5 1 43 0;
#X connect 6 0 7 0;
#X connect 7 0 54 0;
#X connect 8 0 92 0;
#X connect 9 0 10 0;
#X connect 10 0 11 0;
#X connect 10 1 11 0;
#X connect 10 2 11 0;
#X connect 11 0 56 0;
#X connect 12 0 14 0;
#X connect 13 0 12 0;
#X connect 14 0 58 0;
#X connect 15 0 17 0;
#X connect 16 0 57 0;
#X connect 17 0 16 0;
#X connect 17 1 16 0;
#X connect 17 2 16 0;
#X connect 17 3 16 0;
#X connect 17 4 16 0;
#X connect 18 0 20 0;
#X connect 19 0 59 0;
#X connect 20 0 19 0;
#X connect 20 1 19 0;
#X connect 20 2 19 0;
#X connect 20 3 19 0;
#X connect 20 4 19 0;
#X connect 20 5 19 0;
#X connect 21 0 23 0;
#X connect 22 0 60 0;
#X connect 23 0 22 0;
#X connect 23 1 22 0;
#X connect 23 2 22 0;
#X connect 23 3 22 0;
#X connect 23 4 22 0;
#X connect 23 5 22 0;
#X connect 23 6 22 0;
#X connect 24 0 25 0;
#X connect 25 0 61 0;
#X connect 26 0 6 0;
#X connect 27 0 26 1;
#X connect 28 0 8 0;
#X connect 29 0 28 1;
#X connect 30 0 9 0;
#X connect 31 0 30 1;
#X connect 32 0 13 0;
#X connect 33 0 32 1;
#X connect 34 0 15 0;
#X connect 35 0 34 1;
#X connect 36 0 18 0;
#X connect 37 0 36 1;
#X connect 38 0 21 0;
#X connect 39 0 38 1;
#X connect 40 0 24 0;
#X connect 41 0 40 1;
#X connect 42 0 3 0;
#X connect 42 0 48 0;
#X connect 43 0 79 0;
#X connect 43 0 87 0;
#X connect 43 1 44 0;
#X connect 44 0 80 0;
#X connect 44 0 88 0;
#X connect 44 1 45 0;
#X connect 45 0 81 0;
#X connect 45 0 89 0;
#X connect 45 1 46 0;
#X connect 46 0 82 0;
#X connect 46 0 90 0;
#X connect 46 1 47 0;
#X connect 47 0 83 0;
#X connect 47 0 91 0;
#X connect 49 0 27 0;
#X connect 50 0 29 0;
#X connect 52 0 51 0;
#X connect 62 0 26 0;
#X connect 63 0 30 0;
#X connect 64 0 28 0;
#X connect 65 0 32 0;
#X connect 66 0 34 0;
#X connect 67 0 38 0;
#X connect 68 0 36 0;
#X connect 69 0 40 0;
#X connect 70 0 31 0;
#X connect 71 0 33 0;
#X connect 72 0 35 0;
#X connect 73 0 37 0;
#X connect 74 0 41 0;
#X connect 75 0 39 0;
#X connect 84 0 77 0;
#X connect 85 0 76 0;
#X connect 85 0 78 0;
#X connect 86 0 77 0;
#X connect 86 0 79 0;
#X connect 87 0 78 0;
#X connect 87 0 80 0;
#X connect 88 0 79 0;
#X connect 88 0 81 0;
#X connect 89 0 80 0;
#X connect 89 0 82 0;
#X connect 90 0 81 0;
#X connect 90 0 83 0;
#X connect 91 0 82 0;
#X connect 92 0 55 0;
