#N canvas 202 543 535 362 10;
#X declare -path control;
#X declare -path fx;
#X declare -path instrument;
#X declare -path scales;
#X declare -path metapdlibs/control;
#X declare -path metapdlibs/fx;
#X declare -path metapdlibs/instrument;
#X declare -path metapdlibs/scales;
#X declare -path samples;
#X obj 62 314 outlet~;
#X obj 17 7 inlet;
#X obj 59 7 inlet;
#X obj 102 6 inlet;
#X obj 146 6 inlet;
#X obj 226 9 inlet;
#X obj 346 18 loadMetaPdLibs;
#N canvas 145 623 450 300 load-samples 0;
#X obj 378 88 table kick;
#X obj 376 112 table snare;
#X obj 376 135 table hat;
#X obj 374 158 table beep;
#X obj 43 29 loadbang;
#X obj 29 257 declare -path samples;
#X obj 47 167 soundfiler;
#X msg 64 73 read -resize kick.wav kick;
#X msg 63 97 read -resize snare.wav snare;
#X msg 62 121 read -resize hat.wav hat;
#X msg 63 143 read -resize beep.wav beep;
#X obj 103 29 t b b b b;
#X obj 187 26 bng 15 250 50 0 empty empty empty 17 7 0 10 -262144 -1
-1;
#X connect 4 0 11 0;
#X connect 7 0 6 0;
#X connect 8 0 6 0;
#X connect 9 0 6 0;
#X connect 10 0 6 0;
#X connect 11 0 10 0;
#X connect 11 1 9 0;
#X connect 11 2 8 0;
#X connect 11 3 7 0;
#X connect 12 0 11 0;
#X restore 350 279 pd load-samples;
#X obj 62 216 s_playtable;
#X msg 62 193 kick;
#X msg 207 193 hat;
#X msg 135 194 snare;
#X obj 207 216 s_playtable;
#X obj 135 216 s_playtable;
#X obj 280 215 s_playtable;
#X obj 57 119 % 4;
#X obj 53 141 select 0;
#X obj 214 106 select 0;
#X obj 216 60 t b;
#X obj 216 82 random 4;
#X obj 281 82 cos;
#X floatatom 285 115 5 0 0 0 - - -, f 5;
#X obj 286 138 abs;
#X msg 215 134 hat \$1;
#X obj 130 121 % 8;
#X obj 128 147 select 4;
#X obj 284 56 * 1;
#X floatatom 329 112 5 0 0 0 - - -, f 5;
#X obj 330 135 abs;
#X obj 328 53 * 3;
#X msg 280 193 beep \$1;
#X obj 302 26 + 5;
#X obj 325 79 cos;
#X connect 5 0 15 0;
#X connect 5 0 18 0;
#X connect 5 0 24 0;
#X connect 5 0 26 0;
#X connect 5 0 31 0;
#X connect 8 0 0 0;
#X connect 9 0 8 0;
#X connect 10 0 12 0;
#X connect 11 0 13 0;
#X connect 12 0 0 0;
#X connect 13 0 0 0;
#X connect 14 0 0 0;
#X connect 15 0 16 0;
#X connect 16 0 9 0;
#X connect 18 0 19 0;
#X connect 19 0 17 0;
#X connect 20 0 21 0;
#X connect 21 0 22 0;
#X connect 22 0 23 0;
#X connect 23 0 12 0;
#X connect 24 0 25 0;
#X connect 25 0 11 0;
#X connect 26 0 20 0;
#X connect 27 0 28 0;
#X connect 28 0 30 0;
#X connect 29 0 32 0;
#X connect 30 0 14 0;
#X connect 31 0 29 0;
#X connect 32 0 27 0;
