#N canvas 1014 306 1334 591 10;
#X declare -path control;
#X declare -path fx;
#X declare -path instrument;
#X declare -path scales;
#X declare -path metapdlibs/control;
#X declare -path metapdlibs/fx;
#X declare -path metapdlibs/instrument;
#X declare -path metapdlibs/scales;
#X declare -path samples;
#X declare -path control;
#X declare -path fx;
#X declare -path instrument;
#X declare -path scales;
#X declare -path metapdlibs/control;
#X declare -path metapdlibs/fx;
#X declare -path metapdlibs/instrument;
#X declare -path metapdlibs/scales;
#X declare -path rj;
#X declare -path metapdlibs;
#X declare -path control;
#X declare -path fx;
#X declare -path instrument;
#X declare -path scales;
#X declare -path metapdlibs/control;
#X declare -path metapdlibs/fx;
#X declare -path metapdlibs/instrument;
#X declare -path metapdlibs/scales;
#X declare -path control;
#X declare -path fx;
#X declare -path instrument;
#X declare -path scales;
#X declare -path metapdlibs/control;
#X declare -path metapdlibs/fx;
#X declare -path metapdlibs/instrument;
#X declare -path metapdlibs/scales;
#X declare -path control;
#X declare -path fx;
#X declare -path instrument;
#X declare -path scales;
#X declare -path metapdlibs/control;
#X declare -path metapdlibs/fx;
#X declare -path metapdlibs/instrument;
#X declare -path metapdlibs/scales;
#X obj 17 13 fader-ui controller;
#X floatatom 716 181 5 0 0 0 - - -, f 5;
#X obj 715 200 s controller-1-in;
#X floatatom 837 181 5 0 0 0 - - -, f 5;
#X floatatom 955 181 5 0 0 0 - - -, f 5;
#X floatatom 1072 180 5 0 0 0 - - -, f 5;
#X obj 837 200 s controller-2-in;
#X obj 955 200 s controller-3-in;
#X obj 1072 199 s controller-4-in;
#X obj 38 246 fader-drum;
#X obj 573 72 tgl 15 0 empty empty empty 17 7 0 10 -262144 -1 -1 1
1;
#X obj 573 47 loadbang;
#X obj 38 131 r c1;
#X obj 38 154 r c2;
#X obj 38 176 r c3;
#X obj 38 198 r c4;
#X obj 38 220 r beat;
#X obj 553 117 bng 15 250 50 0 empty empty empty 17 7 0 10 -262144
-1 -1;
#X obj 608 135 s beat;
#X obj 297 531 dac~;
#X obj 147 13 loadMetaPdLibs;
#X obj 1144 29 declare -path rj;
#X obj 1140 63 declare -path metapdlibs;
#X obj 34 277 monovol;
#X floatatom 677 57 5 0 0 0 - - -, f 5;
#X obj 677 76 * 4;
#X obj 670 112 t 60 f;
#X obj 684 136 /;
#X floatatom 669 169 5 0 0 0 - - -, f 5;
#X obj 573 93 metro 120;
#X obj 573 114 infcounter 64;
#X obj 96 271 loadbang;
#X msg 102 292 90;
#X obj 790 42 receive fromGUI;
#X obj 790 74 list trim;
#X obj 790 107 route /slider1 /slider2 /slider3 /slider4;
#X obj 790 131 * 127;
#X floatatom 790 153 5 0 0 0 - - c1, f 5;
#X obj 850 129 * 127;
#X floatatom 850 151 5 0 0 0 - - c2, f 5;
#X obj 911 127 * 127;
#X floatatom 911 149 5 0 0 0 - - c3, f 5;
#X obj 971 128 * 127;
#X floatatom 971 150 5 0 0 0 - - c4, f 5;
#X obj 1035 128 * 127;
#X floatatom 1035 150 5 0 0 0 - - -, f 5;
#X obj 230 274 monovol;
#X obj 378 277 monovol;
#X obj 322 272 loadbang;
#X obj 477 282 monovol;
#X msg 576 300 90;
#X obj 552 280 loadbang;
#X obj 472 231 r beat;
#X obj 474 253 fader-pads;
#N canvas 921 615 456 467 master-chain 0;
#X obj 24 10 inlet~;
#X obj 37 349 outlet~;
#X obj 51 140 e_scompress \$0-main;
#X obj 45 200 e_softclip \$0-main;
#X msg 154 109 attack 20 \, release 200 \, ratio 0.8 \, thresh 80;
#X msg 145 173 dry 0 \, drive 0.5;
#X obj 209 58 loadbang;
#X obj 54 263 monovol;
#X obj 28 68 monovol;
#X msg 146 60 90;
#X msg 133 270 99;
#X connect 0 0 8 0;
#X connect 2 0 3 0;
#X connect 3 0 7 0;
#X connect 4 0 2 2;
#X connect 5 0 3 1;
#X connect 6 0 4 0;
#X connect 6 0 5 0;
#X connect 6 0 9 0;
#X connect 6 0 10 0;
#X connect 7 0 1 0;
#X connect 8 0 2 0;
#X connect 9 0 8 1;
#X connect 10 0 7 1;
#X restore 225 500 pd master-chain;
#N canvas 572 304 646 544 reverb-aux 0;
#X obj 32 36 inlet~;
#X obj 33 488 outlet~;
#X obj 41 265 monovol;
#X obj 39 323 rev2~ 100 85 3000 50;
#X obj 87 487 outlet~;
#X obj 115 209 loadbang;
#X msg 155 244 80;
#X connect 0 0 2 0;
#X connect 2 0 3 0;
#X connect 3 0 1 0;
#X connect 3 1 4 0;
#X connect 5 0 6 0;
#X connect 6 0 2 1;
#X restore 352 507 pd reverb-aux;
#X obj 176 268 loadbang;
#X msg 200 288 75;
#X msg 346 292 78;
#X obj 230 245 fader-bass;
#X obj 381 252 fader-lead;
#X obj 232 219 r beat;
#X obj 388 227 r beat;
#N canvas 275 245 889 476 crystal 0;
#X obj 80 16 loadbang;
#X obj 33 16 inlet~;
#X obj 36 327 outlet~;
#X obj 279 30 inlet;
#X obj 312 116 line~;
#X obj 279 52 t b f;
#X msg 279 94 0 500;
#X obj 336 73 list append 50;
#X obj 279 74 delay 50;
#X obj 34 42 *~;
#X obj 430 29 vsl 15 128 0 1 0 0 empty empty empty 0 -9 0 10 -262144
-1 -1 0 1;
#X obj 81 92 f 12;
#X obj 36 298 *~ 0.5;
#X obj 60 115 pitchshift~;
#X obj 35 232 rlop~ 4720 1;
#X text 277 5 control inlet!;
#X obj 93 146 loadbang;
#X obj 54 264 rev2~ 100 95 14400 60;
#X obj 35 65 *~ 0.8;
#X obj 491 157 vline~;
#X obj 509 179 noise~;
#X obj 490 201 *~;
#X obj 491 94 bng 24 250 50 0 empty empty empty 17 7 0 10 -4034 -1
-1;
#X msg 491 121 0.8 10 \, 0 20 10;
#X msg 93 169 500;
#X msg 126 169 0.3;
#X obj 60 191 feedbackdelay 500;
#X obj 522 31 inlet;
#X obj 523 53 list append 50;
#X connect 0 0 11 0;
#X connect 1 0 9 0;
#X connect 3 0 5 0;
#X connect 4 0 9 1;
#X connect 5 0 8 0;
#X connect 5 1 7 0;
#X connect 6 0 4 0;
#X connect 7 0 4 0;
#X connect 8 0 6 0;
#X connect 9 0 18 0;
#X connect 10 0 7 0;
#X connect 11 0 13 1;
#X connect 12 0 2 0;
#X connect 13 0 26 0;
#X connect 14 0 12 0;
#X connect 14 0 17 0;
#X connect 16 0 24 0;
#X connect 16 0 25 0;
#X connect 17 0 12 0;
#X connect 18 0 13 0;
#X connect 18 0 14 0;
#X connect 19 0 21 0;
#X connect 20 0 21 1;
#X connect 21 0 18 0;
#X connect 22 0 23 0;
#X connect 23 0 19 0;
#X connect 24 0 26 1;
#X connect 25 0 26 2;
#X connect 26 0 14 0;
#X connect 27 0 28 0;
#X connect 28 0 4 0;
#X restore 467 389 pd crystal;
#X obj 552 326 vsl 15 128 0 1 0 0 empty empty empty 0 -9 0 10 -262144
-1 -1 10160 1;
#X obj 575 325 loadbang;
#X msg 577 348 0.8;
#X obj 232 130 r c5;
#X obj 232 153 r c6;
#X obj 232 175 r c7;
#X obj 232 197 r c8;
#X obj 388 138 r c9;
#X obj 388 161 r c10;
#X obj 388 183 r c11;
#X obj 388 205 r c12;
#X obj 475 143 r c13;
#X obj 475 166 r c14;
#X obj 475 188 r c15;
#X obj 475 210 r c16;
#N canvas 164 628 1329 642 controller-mapping 1;
#X obj 371 50 loadbang;
#X obj 371 97 random 4;
#X obj 377 125 select 0 1 2 3;
#X obj 41 385 auto-fader;
#X obj 77 423 s c1;
#X obj 77 445 s c2;
#X obj 77 467 s c3;
#X obj 77 489 s c4;
#X obj 318 423 s c5;
#X obj 318 445 s c6;
#X obj 318 467 s c7;
#X obj 318 489 s c8;
#X obj 486 422 s c9;
#X obj 486 444 s c10;
#X obj 486 466 s c11;
#X obj 486 488 s c12;
#X obj 721 423 s c13;
#X obj 721 445 s c14;
#X obj 721 467 s c15;
#X obj 721 489 s c16;
#N canvas 687 538 584 472 controller-input 0;
#X obj 71 157 r controller-1-out;
#X floatatom 71 178 5 0 0 0 - - -, f 5;
#X floatatom 190 177 5 0 0 0 - - -, f 5;
#X floatatom 306 177 5 0 0 0 - - -, f 5;
#X floatatom 426 176 5 0 0 0 - - -, f 5;
#X obj 190 156 r controller-2-out;
#X obj 306 156 r controller-3-out;
#X obj 426 155 r controller-4-out;
#X obj 71 197 spigot;
#X obj 71 219 outlet;
#X obj 190 196 spigot;
#X obj 190 218 outlet;
#X obj 306 196 spigot;
#X obj 306 218 outlet;
#X obj 426 195 spigot;
#X obj 426 217 outlet;
#X obj 268 33 inlet;
#X obj 273 62 tgl 15 0 empty empty empty 17 7 0 10 -262144 -1 -1 0
1;
#X connect 0 0 1 0;
#X connect 1 0 8 0;
#X connect 2 0 10 0;
#X connect 3 0 12 0;
#X connect 4 0 14 0;
#X connect 5 0 2 0;
#X connect 6 0 3 0;
#X connect 7 0 4 0;
#X connect 8 0 9 0;
#X connect 10 0 11 0;
#X connect 12 0 13 0;
#X connect 14 0 15 0;
#X connect 16 0 17 0;
#X connect 17 0 8 1;
#X connect 17 0 10 1;
#X connect 17 0 12 1;
#X connect 17 0 14 1;
#X restore 115 386 pd controller-input;
#X obj 252 385 auto-fader;
#N canvas 687 538 584 472 controller-input 0;
#X obj 71 157 r controller-1-out;
#X floatatom 71 178 5 0 0 0 - - -, f 5;
#X floatatom 190 177 5 0 0 0 - - -, f 5;
#X floatatom 306 177 5 0 0 0 - - -, f 5;
#X floatatom 426 176 5 0 0 0 - - -, f 5;
#X obj 190 156 r controller-2-out;
#X obj 306 156 r controller-3-out;
#X obj 426 155 r controller-4-out;
#X obj 71 197 spigot;
#X obj 71 219 outlet;
#X obj 190 196 spigot;
#X obj 190 218 outlet;
#X obj 306 196 spigot;
#X obj 306 218 outlet;
#X obj 426 195 spigot;
#X obj 426 217 outlet;
#X obj 268 33 inlet;
#X obj 273 62 tgl 15 0 empty empty empty 17 7 0 10 -262144 -1 -1 0
1;
#X connect 0 0 1 0;
#X connect 1 0 8 0;
#X connect 2 0 10 0;
#X connect 3 0 12 0;
#X connect 4 0 14 0;
#X connect 5 0 2 0;
#X connect 6 0 3 0;
#X connect 7 0 4 0;
#X connect 8 0 9 0;
#X connect 10 0 11 0;
#X connect 12 0 13 0;
#X connect 14 0 15 0;
#X connect 16 0 17 0;
#X connect 17 0 8 1;
#X connect 17 0 10 1;
#X connect 17 0 12 1;
#X connect 17 0 14 1;
#X restore 326 386 pd controller-input;
#X obj 461 385 auto-fader;
#N canvas 687 538 584 472 controller-input 0;
#X obj 71 157 r controller-1-out;
#X floatatom 71 178 5 0 0 0 - - -, f 5;
#X floatatom 190 177 5 0 0 0 - - -, f 5;
#X floatatom 306 177 5 0 0 0 - - -, f 5;
#X floatatom 426 176 5 0 0 0 - - -, f 5;
#X obj 190 156 r controller-2-out;
#X obj 306 156 r controller-3-out;
#X obj 426 155 r controller-4-out;
#X obj 71 197 spigot;
#X obj 71 219 outlet;
#X obj 190 196 spigot;
#X obj 190 218 outlet;
#X obj 306 196 spigot;
#X obj 306 218 outlet;
#X obj 426 195 spigot;
#X obj 426 217 outlet;
#X obj 268 33 inlet;
#X obj 273 62 tgl 15 0 empty empty empty 17 7 0 10 -262144 -1 -1 0
1;
#X connect 0 0 1 0;
#X connect 1 0 8 0;
#X connect 2 0 10 0;
#X connect 3 0 12 0;
#X connect 4 0 14 0;
#X connect 5 0 2 0;
#X connect 6 0 3 0;
#X connect 7 0 4 0;
#X connect 8 0 9 0;
#X connect 10 0 11 0;
#X connect 12 0 13 0;
#X connect 14 0 15 0;
#X connect 16 0 17 0;
#X connect 17 0 8 1;
#X connect 17 0 10 1;
#X connect 17 0 12 1;
#X connect 17 0 14 1;
#X restore 535 386 pd controller-input;
#X obj 669 384 auto-fader;
#N canvas 687 538 584 472 controller-input 0;
#X obj 71 157 r controller-1-out;
#X floatatom 71 178 5 0 0 0 - - -, f 5;
#X floatatom 190 177 5 0 0 0 - - -, f 5;
#X floatatom 306 177 5 0 0 0 - - -, f 5;
#X floatatom 426 176 5 0 0 0 - - -, f 5;
#X obj 190 156 r controller-2-out;
#X obj 306 156 r controller-3-out;
#X obj 426 155 r controller-4-out;
#X obj 71 197 spigot;
#X obj 71 219 outlet;
#X obj 190 196 spigot;
#X obj 190 218 outlet;
#X obj 306 196 spigot;
#X obj 306 218 outlet;
#X obj 426 195 spigot;
#X obj 426 217 outlet;
#X obj 268 33 inlet;
#X obj 273 62 tgl 15 0 empty empty empty 17 7 0 10 -262144 -1 -1 0
1;
#X connect 0 0 1 0;
#X connect 1 0 8 0;
#X connect 2 0 10 0;
#X connect 3 0 12 0;
#X connect 4 0 14 0;
#X connect 5 0 2 0;
#X connect 6 0 3 0;
#X connect 7 0 4 0;
#X connect 8 0 9 0;
#X connect 10 0 11 0;
#X connect 12 0 13 0;
#X connect 14 0 15 0;
#X connect 16 0 17 0;
#X connect 17 0 8 1;
#X connect 17 0 10 1;
#X connect 17 0 12 1;
#X connect 17 0 14 1;
#X restore 743 385 pd controller-input;
#X floatatom 327 325 5 0 0 0 - - -, f 5;
#X obj 299 286 t f f;
#X obj 389 248 unpack f f f f;
#X msg 321 167 1 0 0 0;
#X obj 262 325 * -1;
#X obj 262 345 + 1;
#X floatatom 533 335 5 0 0 0 - - -, f 5;
#X obj 505 296 t f f;
#X obj 468 335 * -1;
#X obj 468 355 + 1;
#X floatatom 747 336 5 0 0 0 - - -, f 5;
#X obj 719 297 t f f;
#X obj 682 336 * -1;
#X obj 682 356 + 1;
#X floatatom 131 338 5 0 0 0 - - -, f 5;
#X obj 103 299 t f f;
#X obj 66 338 * -1;
#X obj 66 358 + 1;
#X msg 383 162 0 1 0 0;
#X msg 450 163 0 0 1 0;
#X msg 506 165 0 0 0 1;
#X msg 625 142 drums;
#X msg 678 143 bass;
#X msg 722 145 lead;
#X msg 766 141 pads;
#X obj 652 177 t a a;
#X obj 709 194 print controlling;
#X obj 644 93 select 0 1 2 3;
#X obj 640 226 outlet;
#X obj 275 55 inlet;
#X msg 912 127 0 0 0 0;
#X text 971 126 all auto;
#X obj 880 38 inlet;
#X msg 292 96 0;
#X connect 0 0 60 0;
#X connect 1 0 2 0;
#X connect 1 0 54 0;
#X connect 2 0 30 0;
#X connect 2 1 45 0;
#X connect 2 2 46 0;
#X connect 2 3 47 0;
#X connect 3 0 4 0;
#X connect 3 1 5 0;
#X connect 3 2 6 0;
#X connect 3 3 7 0;
#X connect 20 0 4 0;
#X connect 20 1 5 0;
#X connect 20 2 6 0;
#X connect 20 3 7 0;
#X connect 21 0 8 0;
#X connect 21 1 9 0;
#X connect 21 2 10 0;
#X connect 21 3 11 0;
#X connect 22 0 8 0;
#X connect 22 1 9 0;
#X connect 22 2 10 0;
#X connect 22 3 11 0;
#X connect 23 0 15 0;
#X connect 23 1 14 0;
#X connect 23 2 13 0;
#X connect 23 3 12 0;
#X connect 24 0 12 0;
#X connect 24 1 13 0;
#X connect 24 2 14 0;
#X connect 24 3 15 0;
#X connect 25 0 19 0;
#X connect 25 1 18 0;
#X connect 25 2 17 0;
#X connect 25 3 16 0;
#X connect 26 0 16 0;
#X connect 26 1 17 0;
#X connect 26 2 18 0;
#X connect 26 3 19 0;
#X connect 27 0 22 0;
#X connect 28 0 31 0;
#X connect 28 1 27 0;
#X connect 29 0 42 0;
#X connect 29 1 28 0;
#X connect 29 2 34 0;
#X connect 29 3 38 0;
#X connect 30 0 29 0;
#X connect 31 0 32 0;
#X connect 32 0 21 0;
#X connect 33 0 24 0;
#X connect 34 0 35 0;
#X connect 34 1 33 0;
#X connect 35 0 36 0;
#X connect 36 0 23 0;
#X connect 37 0 26 0;
#X connect 38 0 39 0;
#X connect 38 1 37 0;
#X connect 39 0 40 0;
#X connect 40 0 25 0;
#X connect 41 0 20 0;
#X connect 42 0 43 0;
#X connect 42 1 41 0;
#X connect 43 0 44 0;
#X connect 44 0 3 0;
#X connect 45 0 29 0;
#X connect 46 0 29 0;
#X connect 47 0 29 0;
#X connect 48 0 52 0;
#X connect 49 0 52 0;
#X connect 50 0 52 0;
#X connect 51 0 52 0;
#X connect 52 1 53 0;
#X connect 54 0 48 0;
#X connect 54 1 49 0;
#X connect 54 2 50 0;
#X connect 54 3 51 0;
#X connect 56 0 1 0;
#X connect 57 0 29 0;
#X connect 59 0 57 0;
#X connect 60 0 2 0;
#X restore 822 416 pd controller-mapping;
#X obj 823 308 bng 100 250 50 0 empty empty change_control 17 7 0 10
-258113 -1 -1;
#X obj 931 309 bng 100 250 50 0 empty empty full_auto 17 7 0 10 -4032
-1 -1;
#X connect 1 0 2 0;
#X connect 3 0 6 0;
#X connect 4 0 7 0;
#X connect 5 0 8 0;
#X connect 9 0 23 0;
#X connect 9 0 55 0;
#X connect 10 0 29 0;
#X connect 11 0 10 0;
#X connect 12 0 9 0;
#X connect 13 0 9 1;
#X connect 14 0 9 2;
#X connect 15 0 9 3;
#X connect 16 0 9 4;
#X connect 23 0 54 0;
#X connect 24 0 25 0;
#X connect 25 0 26 0;
#X connect 26 0 27 0;
#X connect 26 1 27 1;
#X connect 27 0 28 0;
#X connect 29 0 17 0;
#X connect 29 0 30 0;
#X connect 30 0 18 0;
#X connect 31 0 32 0;
#X connect 32 0 23 1;
#X connect 33 0 34 0;
#X connect 34 0 35 0;
#X connect 35 0 36 0;
#X connect 35 1 38 0;
#X connect 35 2 40 0;
#X connect 35 3 42 0;
#X connect 35 4 44 0;
#X connect 36 0 37 0;
#X connect 36 0 1 0;
#X connect 38 0 39 0;
#X connect 38 0 3 0;
#X connect 40 0 41 0;
#X connect 40 0 4 0;
#X connect 42 0 43 0;
#X connect 42 0 5 0;
#X connect 44 0 45 0;
#X connect 46 0 54 0;
#X connect 46 0 55 0;
#X connect 47 0 54 0;
#X connect 47 0 55 0;
#X connect 48 0 58 0;
#X connect 49 0 54 0;
#X connect 50 0 49 1;
#X connect 51 0 50 0;
#X connect 52 0 53 4;
#X connect 53 0 49 0;
#X connect 53 0 55 0;
#X connect 53 0 63 0;
#X connect 54 0 19 1;
#X connect 54 0 19 0;
#X connect 55 0 19 1;
#X connect 55 1 19 0;
#X connect 56 0 57 0;
#X connect 57 0 46 1;
#X connect 58 0 47 1;
#X connect 59 0 46 0;
#X connect 60 0 47 0;
#X connect 61 0 59 4;
#X connect 62 0 60 4;
#X connect 63 0 19 0;
#X connect 63 0 19 1;
#X connect 64 0 63 2;
#X connect 65 0 66 0;
#X connect 66 0 64 0;
#X connect 67 0 59 0;
#X connect 68 0 59 1;
#X connect 69 0 59 2;
#X connect 70 0 59 3;
#X connect 71 0 60 0;
#X connect 72 0 60 1;
#X connect 73 0 60 2;
#X connect 74 0 60 3;
#X connect 75 0 53 0;
#X connect 76 0 53 1;
#X connect 77 0 53 2;
#X connect 78 0 53 3;
#X connect 80 0 79 0;
#X connect 81 0 79 1;
