#N canvas 445 23 1174 622 10;
#X declare -path control;
#X declare -path fx;
#X declare -path instrument;
#X declare -path scales;
#X declare -path metapdlibs/control;
#X declare -path metapdlibs/fx;
#X declare -path metapdlibs/instrument;
#X declare -path metapdlibs/scales;
#X declare -path samples;
#X declare -path control;
#X declare -path fx;
#X declare -path instrument;
#X declare -path scales;
#X declare -path metapdlibs/control;
#X declare -path metapdlibs/fx;
#X declare -path metapdlibs/instrument;
#X declare -path metapdlibs/scales;
#X declare -path rj;
#X declare -path metapdlibs;
#X obj 17 13 fader-ui controller;
#X floatatom 716 181 5 0 0 0 - - -, f 5;
#X obj 715 200 s controller-1-in;
#X obj 15 48 r controller-1-out;
#X floatatom 15 69 5 0 0 0 - - c1, f 5;
#X floatatom 837 181 5 0 0 0 - - -, f 5;
#X floatatom 136 69 5 0 0 0 - - c2, f 5;
#X floatatom 955 181 5 0 0 0 - - -, f 5;
#X floatatom 254 69 5 0 0 0 - - c3, f 5;
#X floatatom 1072 180 5 0 0 0 - - -, f 5;
#X floatatom 371 68 5 0 0 0 - - c4, f 5;
#X obj 136 48 r controller-2-out;
#X obj 254 48 r controller-3-out;
#X obj 371 47 r controller-4-out;
#X obj 837 200 s controller-2-in;
#X obj 955 200 s controller-3-in;
#X obj 1072 199 s controller-4-in;
#X obj 61 324 fader-drum;
#X obj 573 72 tgl 15 0 empty empty empty 17 7 0 10 -262144 -1 -1 1
1;
#X obj 573 47 loadbang;
#X obj 61 209 r c1;
#X obj 61 232 r c2;
#X obj 61 254 r c3;
#X obj 61 276 r c4;
#X obj 61 298 r beat;
#X obj 553 117 bng 15 250 50 0 empty empty empty 17 7 0 10 -262144
-1 -1;
#X obj 608 135 s beat;
#X obj 79 538 dac~;
#X obj 147 13 loadMetaPdLibs;
#X obj 577 230 declare -path rj;
#X obj 573 264 declare -path metapdlibs;
#X obj 51 397 monovol;
#X obj 153 435 monovol;
#X obj 161 514 rev2~ 100 85 3000 50;
#X obj 389 437 e_scompress \$0-main;
#X obj 383 469 e_softclip \$0-main;
#X obj 366 506 monovol;
#X floatatom 677 57 5 0 0 0 - - -, f 5;
#X obj 677 76 * 4;
#X obj 670 112 t 60 f;
#X obj 684 136 /;
#X floatatom 669 169 5 0 0 0 - - -, f 5;
#X obj 573 93 metro 120;
#X obj 573 114 infcounter 64;
#X obj 208 321 loadbang;
#X msg 211 355 90;
#X msg 248 356 71;
#X msg 297 350 99;
#X msg 378 402 attack 20 \, release 200 \, ratio 0.8 \, thresh 80;
#X obj 790 42 receive fromGUI;
#X obj 790 74 list trim;
#X obj 790 107 route /slider1 /slider2 /slider3 /slider4;
#X obj 790 131 * 127;
#X floatatom 790 153 5 0 0 0 - - c1, f 5;
#X obj 850 129 * 127;
#X floatatom 850 151 5 0 0 0 - - c2, f 5;
#X obj 911 127 * 127;
#X floatatom 911 149 5 0 0 0 - - c3, f 5;
#X obj 971 128 * 127;
#X floatatom 971 150 5 0 0 0 - - c4, f 5;
#X obj 1035 128 * 127;
#X floatatom 1035 150 5 0 0 0 - - -, f 5;
#X msg 518 435 dry 0 \, drive 0.5;
#X obj 433 351 loadbang;
#N canvas 757 483 568 307 lead 0;
#X obj 23 237 outlet~;
#X obj 25 41 inlet;
#X obj 85 161 pack;
#X obj 21 136 makenote 100 20;
#X obj 24 62 t b b b;
#X obj 22 111 m_majorscale 48;
#X obj 22 88 random 22;
#X msg 84 229 ratio 5 \, index 150 \, mR 292 \, mS 8 \, mD 20 \, mA
0 \, R 118 \, S 50 \, D 55 \, A 8 \,;
#X obj 26 206 s_fmoscil leadsynth;
#X connect 1 0 4 0;
#X connect 2 0 8 0;
#X connect 3 0 2 0;
#X connect 3 1 2 1;
#X connect 4 0 6 0;
#X connect 5 0 3 0;
#X connect 6 0 5 0;
#X connect 7 0 8 1;
#X connect 8 0 0 0;
#X restore 456 223 pd lead;
#N canvas 169 492 552 301 bass 0;
#X obj 23 237 outlet~;
#X obj 37 37 inlet;
#X obj 85 161 pack;
#X msg 54 99 36;
#X obj 26 206 s_fmoscil basssynth;
#X obj 21 136 makenote 100 20;
#X obj 138 56 t b b b;
#X msg 84 229 ratio 3 \, index 102 \, mR 292 \, mS 8 \, mD 20 \, mA
0 \, R 118 \, S 50 \, D 55 \, A 2 \,;
#X obj 150 108 m_majorscale 36;
#X obj 150 85 random 8;
#X connect 1 0 6 0;
#X connect 2 0 4 0;
#X connect 3 0 5 0;
#X connect 4 0 0 0;
#X connect 5 0 2 0;
#X connect 5 1 2 1;
#X connect 6 0 3 0;
#X connect 6 0 9 0;
#X connect 7 0 4 1;
#X connect 9 0 8 0;
#X restore 286 245 pd bass;
#X obj 332 274 monovol;
#X obj 286 218 r beat;
#X msg 288 290 90;
#X obj 459 255 monovol;
#X msg 415 271 90;
#X obj 391 251 loadbang;
#X obj 458 189 r beat;
#X obj 809 364 monovol;
#X msg 765 380 90;
#X obj 741 360 loadbang;
#X obj 808 298 r beat;
#N canvas 908 425 1211 549 pad 1;
#X obj 193 229 outlet~;
#X obj 32 23 inlet;
#X obj 67 148 pack;
#X obj 63 100 m_majorscale 48;
#X obj 63 77 random 22;
#X obj 254 150 pack;
#X obj 191 100 m_majorscale 48;
#X obj 191 77 random 22;
#X obj 86 35 select 0;
#X obj 94 199 s_spad pad1;
#X obj 195 195 s_spad pad2;
#X obj 84 55 bng 15 250 50 0 empty empty empty 17 7 0 10 -262144 -1
-1;
#X obj 62 125 makenote 100 400;
#X obj 190 125 makenote 100 400;
#X obj 87 13 % 37;
#X msg 331 341 mod3d 0 \, mod3c 0 \, mod3b 0.520079 \, mod3a 0 \, mod2d
0 \, mod2c 0 \, mod2b 0 \, mod2a 0 \, mod1d 0 \, mod1c 0.284409 \,
mod1b 0.103622 \, mod1a 0.724882 \, osc3d 0 \, osc3c 0 \, osc3b 0 \,
osc3a 0 \, osc2d 0 \, osc2c 0 \, osc2b 0 \, osc2a 1 \, osc1d 0.646142
\, osc1c 0.974882 \, osc1b 0.244094 \, osc1a 0.228346 \, env3r 0 \,
env3s 0 \, env3d 0 \, env3a 0 \, env2r 0.5 \, env2s 0.8 \, env2d 0.0708661
\, env2a 0.00787402 \, env1r 0.6 \, env1s 0.6 \, env1d 0.25 \, env1a
0.4 \,;
#X obj 317 149 pack;
#X obj 300 99 m_majorscale 48;
#X obj 300 76 random 22;
#X obj 299 124 makenote 100 400;
#X obj 301 172 s_spad pad3;
#X obj 196 33 select 0;
#X obj 194 53 bng 15 250 50 0 empty empty empty 17 7 0 10 -262144 -1
-1;
#X obj 302 35 select 0;
#X obj 300 55 bng 15 250 50 0 empty empty empty 17 7 0 10 -262144 -1
-1;
#X obj 197 11 % 43;
#X obj 303 13 % 47;
#X obj 333 317 loadbang;
#X obj 429 147 pack;
#X obj 412 97 m_majorscale 48;
#X obj 412 74 random 22;
#X obj 411 122 makenote 100 400;
#X obj 414 33 select 0;
#X obj 415 11 % 51;
#X obj 415 54 bng 15 250 50 0 empty empty empty 17 7 0 10 -262144 -1
-1;
#X obj 413 170 s_spad pad4;
#X connect 1 0 14 0;
#X connect 1 0 25 0;
#X connect 1 0 26 0;
#X connect 1 0 33 0;
#X connect 2 0 9 0;
#X connect 3 0 12 0;
#X connect 4 0 3 0;
#X connect 5 0 10 0;
#X connect 6 0 13 0;
#X connect 7 0 6 0;
#X connect 8 0 11 0;
#X connect 9 0 0 0;
#X connect 10 0 0 0;
#X connect 11 0 4 0;
#X connect 12 0 2 0;
#X connect 12 1 2 1;
#X connect 13 0 5 0;
#X connect 13 1 5 1;
#X connect 14 0 8 0;
#X connect 15 0 9 1;
#X connect 15 0 10 1;
#X connect 15 0 20 1;
#X connect 15 0 35 1;
#X connect 16 0 20 0;
#X connect 17 0 19 0;
#X connect 18 0 17 0;
#X connect 19 0 16 0;
#X connect 19 1 16 1;
#X connect 20 0 0 0;
#X connect 21 0 22 0;
#X connect 22 0 7 0;
#X connect 23 0 24 0;
#X connect 24 0 18 0;
#X connect 25 0 21 0;
#X connect 26 0 23 0;
#X connect 27 0 15 0;
#X connect 28 0 35 0;
#X connect 29 0 31 0;
#X connect 30 0 29 0;
#X connect 31 0 28 0;
#X connect 31 1 28 1;
#X connect 32 0 34 0;
#X connect 33 0 32 0;
#X connect 34 0 30 0;
#X connect 35 0 0 0;
#X restore 806 332 pd pad;
#X connect 1 0 2 0;
#X connect 3 0 4 0;
#X connect 5 0 14 0;
#X connect 7 0 15 0;
#X connect 9 0 16 0;
#X connect 11 0 6 0;
#X connect 12 0 8 0;
#X connect 13 0 10 0;
#X connect 17 0 31 0;
#X connect 17 0 32 0;
#X connect 18 0 42 0;
#X connect 19 0 18 0;
#X connect 20 0 17 0;
#X connect 21 0 17 1;
#X connect 22 0 17 2;
#X connect 23 0 17 3;
#X connect 24 0 17 4;
#X connect 31 0 34 0;
#X connect 32 0 33 0;
#X connect 33 0 27 0;
#X connect 33 1 27 1;
#X connect 34 0 35 0;
#X connect 35 0 36 0;
#X connect 36 0 27 1;
#X connect 36 0 27 0;
#X connect 37 0 38 0;
#X connect 38 0 39 0;
#X connect 39 0 40 0;
#X connect 39 1 40 1;
#X connect 40 0 41 0;
#X connect 42 0 25 0;
#X connect 42 0 43 0;
#X connect 43 0 26 0;
#X connect 44 0 45 0;
#X connect 44 0 46 0;
#X connect 44 0 47 0;
#X connect 44 0 68 0;
#X connect 45 0 31 1;
#X connect 46 0 32 1;
#X connect 47 0 36 1;
#X connect 48 0 34 2;
#X connect 49 0 50 0;
#X connect 50 0 51 0;
#X connect 51 0 52 0;
#X connect 51 1 54 0;
#X connect 51 2 56 0;
#X connect 51 3 58 0;
#X connect 51 4 60 0;
#X connect 52 0 53 0;
#X connect 52 0 1 0;
#X connect 54 0 55 0;
#X connect 54 0 5 0;
#X connect 56 0 57 0;
#X connect 56 0 7 0;
#X connect 58 0 59 0;
#X connect 58 0 9 0;
#X connect 60 0 61 0;
#X connect 62 0 35 1;
#X connect 63 0 48 0;
#X connect 63 0 62 0;
#X connect 64 0 69 0;
#X connect 65 0 66 0;
#X connect 66 0 34 0;
#X connect 66 0 32 0;
#X connect 67 0 65 0;
#X connect 68 0 66 1;
#X connect 69 0 34 0;
#X connect 69 0 32 0;
#X connect 70 0 69 1;
#X connect 71 0 70 0;
#X connect 72 0 64 0;
#X connect 73 0 34 0;
#X connect 73 0 33 0;
#X connect 74 0 73 1;
#X connect 75 0 74 0;
#X connect 76 0 77 0;
#X connect 77 0 73 0;
