#N canvas 107 23 1334 591 10;
#X declare -path control;
#X declare -path fx;
#X declare -path instrument;
#X declare -path scales;
#X declare -path metapdlibs/control;
#X declare -path metapdlibs/fx;
#X declare -path metapdlibs/instrument;
#X declare -path metapdlibs/scales;
#X declare -path samples;
#X declare -path control;
#X declare -path fx;
#X declare -path instrument;
#X declare -path scales;
#X declare -path metapdlibs/control;
#X declare -path metapdlibs/fx;
#X declare -path metapdlibs/instrument;
#X declare -path metapdlibs/scales;
#X declare -path rj;
#X declare -path metapdlibs;
#X declare -path control;
#X declare -path fx;
#X declare -path instrument;
#X declare -path scales;
#X declare -path metapdlibs/control;
#X declare -path metapdlibs/fx;
#X declare -path metapdlibs/instrument;
#X declare -path metapdlibs/scales;
#X declare -path control;
#X declare -path fx;
#X declare -path instrument;
#X declare -path scales;
#X declare -path metapdlibs/control;
#X declare -path metapdlibs/fx;
#X declare -path metapdlibs/instrument;
#X declare -path metapdlibs/scales;
#X declare -path control;
#X declare -path fx;
#X declare -path instrument;
#X declare -path scales;
#X declare -path metapdlibs/control;
#X declare -path metapdlibs/fx;
#X declare -path metapdlibs/instrument;
#X declare -path metapdlibs/scales;
#X obj 17 13 fader-ui controller;
#X floatatom 716 181 5 0 0 0 - - -, f 5;
#X obj 715 200 s controller-1-in;
#X obj 15 48 r controller-1-out;
#X floatatom 15 69 5 0 0 0 - - c1, f 5;
#X floatatom 837 181 5 0 0 0 - - -, f 5;
#X floatatom 136 69 5 0 0 0 - - c2, f 5;
#X floatatom 955 181 5 0 0 0 - - -, f 5;
#X floatatom 254 69 5 0 0 0 - - c3, f 5;
#X floatatom 1072 180 5 0 0 0 - - -, f 5;
#X floatatom 371 68 5 0 0 0 - - c4, f 5;
#X obj 136 48 r controller-2-out;
#X obj 254 48 r controller-3-out;
#X obj 371 47 r controller-4-out;
#X obj 837 200 s controller-2-in;
#X obj 955 200 s controller-3-in;
#X obj 1072 199 s controller-4-in;
#X obj 38 246 fader-drum;
#X obj 573 72 tgl 15 0 empty empty empty 17 7 0 10 -262144 -1 -1 1
1;
#X obj 573 47 loadbang;
#X obj 38 131 r c1;
#X obj 38 154 r c2;
#X obj 38 176 r c3;
#X obj 38 198 r c4;
#X obj 38 220 r beat;
#X obj 553 117 bng 15 250 50 0 empty empty empty 17 7 0 10 -262144
-1 -1;
#X obj 608 135 s beat;
#X obj 297 531 dac~;
#X obj 147 13 loadMetaPdLibs;
#X obj 1144 29 declare -path rj;
#X obj 1140 63 declare -path metapdlibs;
#X obj 34 277 monovol;
#X floatatom 677 57 5 0 0 0 - - -, f 5;
#X obj 677 76 * 4;
#X obj 670 112 t 60 f;
#X obj 684 136 /;
#X floatatom 669 169 5 0 0 0 - - -, f 5;
#X obj 573 93 metro 120;
#X obj 573 114 infcounter 64;
#X obj 96 271 loadbang;
#X msg 102 292 90;
#X obj 790 42 receive fromGUI;
#X obj 790 74 list trim;
#X obj 790 107 route /slider1 /slider2 /slider3 /slider4;
#X obj 790 131 * 127;
#X floatatom 790 153 5 0 0 0 - - c1, f 5;
#X obj 850 129 * 127;
#X floatatom 850 151 5 0 0 0 - - c2, f 5;
#X obj 911 127 * 127;
#X floatatom 911 149 5 0 0 0 - - c3, f 5;
#X obj 971 128 * 127;
#X floatatom 971 150 5 0 0 0 - - c4, f 5;
#X obj 1035 128 * 127;
#X floatatom 1035 150 5 0 0 0 - - -, f 5;
#X obj 230 274 monovol;
#X obj 378 277 monovol;
#X obj 322 272 loadbang;
#X obj 477 282 monovol;
#X msg 576 300 90;
#X obj 552 280 loadbang;
#X obj 472 231 r beat;
#X obj 474 253 fader-pads;
#X obj 475 143 r c1;
#X obj 475 166 r c2;
#X obj 475 188 r c3;
#X obj 475 210 r c4;
#N canvas 921 615 456 467 master-chain 0;
#X obj 24 10 inlet~;
#X obj 37 349 outlet~;
#X obj 51 140 e_scompress \$0-main;
#X obj 45 200 e_softclip \$0-main;
#X msg 154 109 attack 20 \, release 200 \, ratio 0.8 \, thresh 80;
#X msg 145 173 dry 0 \, drive 0.5;
#X obj 209 58 loadbang;
#X obj 54 263 monovol;
#X obj 28 68 monovol;
#X msg 146 60 90;
#X msg 133 270 99;
#X connect 0 0 8 0;
#X connect 2 0 3 0;
#X connect 3 0 7 0;
#X connect 4 0 2 2;
#X connect 5 0 3 1;
#X connect 6 0 4 0;
#X connect 6 0 5 0;
#X connect 6 0 9 0;
#X connect 6 0 10 0;
#X connect 7 0 1 0;
#X connect 8 0 2 0;
#X connect 9 0 8 1;
#X connect 10 0 7 1;
#X restore 225 500 pd master-chain;
#N canvas 940 365 646 544 reverb-aux 0;
#X obj 32 36 inlet~;
#X obj 33 488 outlet~;
#X obj 41 265 monovol;
#X obj 39 323 rev2~ 100 85 3000 50;
#X obj 87 487 outlet~;
#X obj 115 209 loadbang;
#X msg 155 244 71;
#X connect 0 0 2 0;
#X connect 2 0 3 0;
#X connect 3 0 1 0;
#X connect 3 1 4 0;
#X connect 5 0 6 0;
#X connect 6 0 2 1;
#X restore 352 507 pd reverb-aux;
#X obj 176 268 loadbang;
#X msg 200 288 75;
#X msg 346 292 78;
#X obj 230 245 fader-bass;
#X obj 381 252 fader-lead;
#X obj 232 130 r c1;
#X obj 232 153 r c2;
#X obj 232 175 r c3;
#X obj 232 197 r c4;
#X obj 232 219 r beat;
#X obj 388 138 r c1;
#X obj 388 161 r c2;
#X obj 388 183 r c3;
#X obj 388 205 r c4;
#X obj 388 227 r beat;
#X connect 1 0 2 0;
#X connect 3 0 4 0;
#X connect 5 0 14 0;
#X connect 7 0 15 0;
#X connect 9 0 16 0;
#X connect 11 0 6 0;
#X connect 12 0 8 0;
#X connect 13 0 10 0;
#X connect 17 0 31 0;
#X connect 17 0 67 0;
#X connect 18 0 37 0;
#X connect 19 0 18 0;
#X connect 20 0 17 0;
#X connect 21 0 17 1;
#X connect 22 0 17 2;
#X connect 23 0 17 3;
#X connect 24 0 17 4;
#X connect 31 0 66 0;
#X connect 32 0 33 0;
#X connect 33 0 34 0;
#X connect 34 0 35 0;
#X connect 34 1 35 1;
#X connect 35 0 36 0;
#X connect 37 0 25 0;
#X connect 37 0 38 0;
#X connect 38 0 26 0;
#X connect 39 0 40 0;
#X connect 40 0 31 1;
#X connect 41 0 42 0;
#X connect 42 0 43 0;
#X connect 43 0 44 0;
#X connect 43 1 46 0;
#X connect 43 2 48 0;
#X connect 43 3 50 0;
#X connect 43 4 52 0;
#X connect 44 0 45 0;
#X connect 44 0 1 0;
#X connect 46 0 47 0;
#X connect 46 0 5 0;
#X connect 48 0 49 0;
#X connect 48 0 7 0;
#X connect 50 0 51 0;
#X connect 50 0 9 0;
#X connect 52 0 53 0;
#X connect 54 0 66 0;
#X connect 54 0 67 0;
#X connect 55 0 66 0;
#X connect 55 0 67 0;
#X connect 56 0 70 0;
#X connect 57 0 66 0;
#X connect 58 0 57 1;
#X connect 59 0 58 0;
#X connect 60 0 61 4;
#X connect 61 0 57 0;
#X connect 61 0 67 0;
#X connect 62 0 61 0;
#X connect 63 0 61 1;
#X connect 64 0 61 2;
#X connect 65 0 61 3;
#X connect 66 0 27 1;
#X connect 66 0 27 0;
#X connect 67 0 27 1;
#X connect 67 1 27 0;
#X connect 68 0 69 0;
#X connect 69 0 54 1;
#X connect 70 0 55 1;
#X connect 71 0 54 0;
#X connect 72 0 55 0;
#X connect 73 0 71 0;
#X connect 74 0 71 1;
#X connect 75 0 71 2;
#X connect 76 0 71 3;
#X connect 77 0 71 4;
#X connect 78 0 72 0;
#X connect 79 0 72 1;
#X connect 80 0 72 2;
#X connect 81 0 72 3;
#X connect 82 0 72 4;
