#N canvas 155 167 784 611 10;
#X obj 17 13 fader-ui controller;
#X floatatom 16 95 5 0 0 0 - - -, f 5;
#X obj 16 114 s controller-1-in;
#X obj 15 48 r controller-1-out;
#X floatatom 15 69 5 0 0 0 - - -, f 5;
#X floatatom 137 95 5 0 0 0 - - -, f 5;
#X floatatom 136 69 5 0 0 0 - - -, f 5;
#X floatatom 255 95 5 0 0 0 - - -, f 5;
#X floatatom 254 69 5 0 0 0 - - -, f 5;
#X floatatom 372 94 5 0 0 0 - - -, f 5;
#X floatatom 371 68 5 0 0 0 - - -, f 5;
#X obj 136 48 r controller-2-out;
#X obj 254 48 r controller-3-out;
#X obj 371 47 r controller-4-out;
#X obj 137 114 s controller-2-in;
#X obj 255 114 s controller-3-in;
#X obj 372 113 s controller-4-in;
#X obj 61 324 fader-drum;
#X obj 573 72 tgl 15 0 empty empty empty 17 7 0 10 -262144 -1 -1 1
1;
#X obj 573 47 loadbang;
#X obj 61 209 r c1;
#X obj 61 232 r c2;
#X obj 61 254 r c3;
#X obj 61 276 r c4;
#X obj 61 298 r beat;
#X obj 573 93 metro 150;
#X obj 553 117 bng 15 250 50 0 empty empty empty 17 7 0 10 -262144
-1 -1;
#X obj 608 135 s beat;
#X obj 573 114 counter 16;
#X floatatom 573 136 5 0 0 0 - - -, f 5;
#X connect 1 0 2 0;
#X connect 3 0 4 0;
#X connect 5 0 14 0;
#X connect 7 0 15 0;
#X connect 9 0 16 0;
#X connect 11 0 6 0;
#X connect 12 0 8 0;
#X connect 13 0 10 0;
#X connect 18 0 25 0;
#X connect 19 0 18 0;
#X connect 20 0 17 0;
#X connect 21 0 17 1;
#X connect 22 0 17 2;
#X connect 23 0 17 3;
#X connect 24 0 17 4;
#X connect 25 0 26 0;
#X connect 25 0 28 0;
#X connect 28 0 29 0;
#X connect 28 0 27 0;
