#N canvas 766 663 901 361 10;
#X declare -path control;
#X declare -path fx;
#X declare -path instrument;
#X declare -path scales;
#X declare -path metapdlibs/control;
#X declare -path metapdlibs/fx;
#X declare -path metapdlibs/instrument;
#X declare -path metapdlibs/scales;
#X declare -path samples;
#X obj 62 314 outlet~;
#X obj 61 6 inlet;
#X obj 226 9 inlet;
#X obj 346 18 loadMetaPdLibs;
#N canvas 145 623 450 300 load-samples 0;
#X obj 378 88 table kick;
#X obj 376 112 table snare;
#X obj 376 135 table hat;
#X obj 374 158 table beep;
#X obj 43 29 loadbang;
#X obj 29 257 declare -path samples;
#X obj 47 167 soundfiler;
#X msg 64 73 read -resize kick.wav kick;
#X msg 63 97 read -resize snare.wav snare;
#X msg 62 121 read -resize hat.wav hat;
#X msg 63 143 read -resize beep.wav beep;
#X obj 103 29 t b b b b;
#X obj 187 26 bng 15 250 50 0 empty empty empty 17 7 0 10 -262144 -1
-1;
#X connect 4 0 11 0;
#X connect 7 0 6 0;
#X connect 8 0 6 0;
#X connect 9 0 6 0;
#X connect 10 0 6 0;
#X connect 11 0 10 0;
#X connect 11 1 9 0;
#X connect 11 2 8 0;
#X connect 11 3 7 0;
#X connect 12 0 11 0;
#X restore 117 313 pd load-samples;
#X obj 52 221 s_playtable;
#X obj 239 219 s_playtable;
#X obj 147 222 s_playtable;
#X obj 352 223 s_playtable;
#N canvas 1294 417 1040 713 snare-noter 0;
#X obj 200 607 outlet;
#X obj 346 17 inlet;
#X obj 381 385 % 4;
#X obj 381 414 select 0, f 9;
#X obj 401 436 t b;
#X obj 401 459 random 10;
#X obj 399 482 select 0;
#X obj 391 355 t f f;
#X obj 468 406 cos;
#X obj 412 515 f;
#X obj 465 381 * 3;
#X obj 594 302 / 127;
#X floatatom 593 430 8 0 0 0 - - -, f 8;
#X obj 596 342 - 1;
#X obj 592 364 abs;
#X obj 592 387 * 1000;
#X obj 208 363 cos;
#X obj 223 295 / 32;
#X floatatom 223 317 5 0 0 0 - - -, f 5;
#X obj 208 341 *;
#X obj 194 451 f;
#X obj 61 377 t b;
#X floatatom 234 365 5 0 0 0 - - -, f 5;
#X obj 208 385 abs;
#X msg 200 583 snare \$1;
#X obj 208 429 + 0.75;
#X obj 208 407 * 0.25;
#X obj 346 37 + 0;
#X obj 61 355 downbeats-snare;
#X obj 166 11 inlet;
#X obj 172 66 route /vol /int /hap /jaz;
#X obj 173 40 list trim;
#X connect 1 0 27 0;
#X connect 2 0 3 0;
#X connect 3 1 4 0;
#X connect 4 0 5 0;
#X connect 5 0 6 0;
#X connect 6 0 9 0;
#X connect 7 0 2 0;
#X connect 7 1 10 0;
#X connect 8 0 9 1;
#X connect 9 0 24 0;
#X connect 10 0 8 0;
#X connect 11 0 13 0;
#X connect 12 0 5 1;
#X connect 13 0 14 0;
#X connect 14 0 15 0;
#X connect 15 0 12 0;
#X connect 16 0 22 0;
#X connect 16 0 23 0;
#X connect 17 0 18 0;
#X connect 18 0 19 1;
#X connect 19 0 16 0;
#X connect 20 0 24 0;
#X connect 21 0 20 0;
#X connect 23 0 26 0;
#X connect 24 0 0 0;
#X connect 25 0 20 1;
#X connect 26 0 25 0;
#X connect 27 0 7 0;
#X connect 27 0 19 0;
#X connect 27 0 28 0;
#X connect 28 0 21 0;
#X connect 29 0 31 0;
#X connect 30 0 17 0;
#X connect 30 1 11 0;
#X connect 30 3 11 0;
#X connect 30 3 28 1;
#X connect 31 0 30 0;
#X restore 145 100 pd snare-noter;
#N canvas 298 23 714 507 kick-noter 0;
#X obj 243 20 inlet;
#X obj 198 426 outlet;
#X obj 621 38 inlet;
#X obj 379 204 % 4;
#X obj 379 233 select 0, f 9;
#X obj 399 255 t b;
#X obj 399 278 random 10;
#X obj 397 301 select 0;
#X obj 389 174 t f f;
#X obj 466 225 cos;
#X obj 410 334 f;
#X msg 198 402 kick \$1;
#X obj 463 200 * 3;
#X obj 592 121 / 127;
#X floatatom 591 249 8 0 0 0 - - -, f 8;
#X obj 594 161 - 1;
#X obj 590 183 abs;
#X obj 590 206 * 1000;
#X obj 221 205 cos;
#X obj 236 141 / 32, f 5;
#X floatatom 236 162 5 0 0 0 - - -, f 5;
#X obj 221 184 *;
#X obj 128 321 f;
#X obj 136 176 t b;
#X floatatom 249 206 5 0 0 0 - - -, f 5;
#X obj 201 226 abs;
#X obj 123 124 downbeats;
#X obj 200 271 + 0.75;
#X obj 200 249 * 0.25;
#X obj 249 75 route /vol /int /hap /jaz;
#X obj 250 49 list trim;
#X connect 0 0 30 0;
#X connect 2 0 8 0;
#X connect 2 0 21 0;
#X connect 2 0 26 0;
#X connect 3 0 4 0;
#X connect 4 1 5 0;
#X connect 5 0 6 0;
#X connect 6 0 7 0;
#X connect 7 0 10 0;
#X connect 8 0 3 0;
#X connect 8 1 12 0;
#X connect 9 0 10 1;
#X connect 10 0 11 0;
#X connect 11 0 1 0;
#X connect 12 0 9 0;
#X connect 13 0 15 0;
#X connect 14 0 6 1;
#X connect 15 0 16 0;
#X connect 16 0 17 0;
#X connect 17 0 14 0;
#X connect 18 0 24 0;
#X connect 18 0 25 0;
#X connect 19 0 20 0;
#X connect 20 0 21 1;
#X connect 21 0 18 0;
#X connect 22 0 11 0;
#X connect 23 0 22 0;
#X connect 25 0 28 0;
#X connect 26 0 23 0;
#X connect 27 0 22 1;
#X connect 28 0 27 0;
#X connect 29 0 19 0;
#X connect 29 1 26 1;
#X connect 29 4 13 0;
#X connect 30 0 29 0;
#X restore 54 98 pd kick-noter;
#N canvas 739 216 567 544 hat-noter 0;
#X obj 403 45 inlet;
#X obj 68 463 outlet;
#X obj 254 305 cos;
#X floatatom 252 328 5 0 0 0 - - -, f 5;
#X obj 250 351 abs;
#X msg 68 435 hat \$1;
#X obj 257 279 * 21;
#X obj 148 238 / 100;
#X obj 185 379 *;
#X obj 192 425 select 0;
#X obj 227 240 * 36;
#X obj 56 48 inlet;
#X obj 62 103 route /vol /int /hap /jaz;
#X obj 63 77 list trim;
#N canvas 665 449 450 300 2inmin 0;
#X obj 61 18 inlet;
#X obj 227 20 inlet;
#X obj 115 186 outlet;
#X obj 140 113 min;
#X obj 155 85 f;
#X obj 112 85 f;
#X obj 138 57 t b b;
#X connect 0 0 5 1;
#X connect 0 0 6 0;
#X connect 1 0 4 1;
#X connect 1 0 6 0;
#X connect 3 0 2 0;
#X connect 4 0 3 1;
#X connect 5 0 3 0;
#X connect 6 0 5 0;
#X connect 6 1 4 0;
#X restore 51 170 pd 2inmin;
#N canvas 665 449 450 300 2inmin 0;
#X obj 61 18 inlet;
#X obj 227 20 inlet;
#X obj 115 186 outlet;
#X obj 140 113 min;
#X obj 155 85 f;
#X obj 112 85 f;
#X obj 138 57 t b b;
#X connect 0 0 5 1;
#X connect 0 0 6 0;
#X connect 1 0 4 1;
#X connect 1 0 6 0;
#X connect 3 0 2 0;
#X connect 4 0 3 1;
#X connect 5 0 3 0;
#X connect 6 0 5 0;
#X connect 6 1 4 0;
#X restore 125 171 pd 2inmin;
#X obj 201 195 / 4;
#X connect 0 0 6 0;
#X connect 2 0 3 0;
#X connect 3 0 4 0;
#X connect 4 0 8 0;
#X connect 5 0 1 0;
#X connect 6 0 2 0;
#X connect 7 0 8 1;
#X connect 7 0 10 0;
#X connect 8 0 9 0;
#X connect 9 1 5 0;
#X connect 10 0 6 1;
#X connect 11 0 13 0;
#X connect 12 0 14 0;
#X connect 12 1 14 1;
#X connect 12 2 15 0;
#X connect 12 3 15 1;
#X connect 13 0 12 0;
#X connect 14 0 7 0;
#X connect 15 0 16 0;
#X connect 16 0 10 1;
#X restore 241 100 pd hat-noter;
#N canvas 802 702 968 466 beep-noter 0;
#X obj 97 18 inlet;
#X obj 318 37 inlet;
#X obj 221 361 outlet;
#X obj 304 211 cos;
#X floatatom 302 234 5 0 0 0 - - -, f 5;
#X obj 300 257 abs;
#X obj 307 185 * 21;
#X obj 95 104 / 100;
#X obj 147 288 *;
#X obj 154 334 select 0;
#X msg 221 333 beep \$1;
#X obj 288 147 * 15;
#X obj 323 150 + 1;
#X obj 96 71 route /vol /int /hap /jaz;
#X floatatom 26 146 5 0 0 0 - - -, f 5;
#X obj 97 45 list trim;
#X obj 292 118 / 100;
#X obj 135 203 min;
#X floatatom 95 244 5 0 0 0 - - -, f 5;
#X obj 150 175 f;
#X obj 107 175 f;
#X obj 133 147 t b b;
#X connect 0 0 15 0;
#X connect 1 0 12 0;
#X connect 3 0 4 0;
#X connect 4 0 5 0;
#X connect 5 0 8 0;
#X connect 6 0 3 0;
#X connect 7 0 20 1;
#X connect 7 0 21 0;
#X connect 8 0 9 0;
#X connect 9 1 10 0;
#X connect 10 0 2 0;
#X connect 11 0 6 1;
#X connect 12 0 6 0;
#X connect 13 0 7 0;
#X connect 13 0 14 0;
#X connect 13 3 16 0;
#X connect 15 0 13 0;
#X connect 16 0 11 0;
#X connect 16 0 19 1;
#X connect 16 0 21 0;
#X connect 17 0 8 1;
#X connect 17 0 18 0;
#X connect 19 0 17 1;
#X connect 20 0 17 0;
#X connect 21 0 20 0;
#X connect 21 1 19 0;
#X restore 331 100 pd beep-noter;
#X obj 542 256 monovol;
#X obj 562 61 route /vol /int /hap /jaz;
#X obj 563 35 list trim;
#X obj 565 86 / 127;
#X obj 566 109 * 10;
#X obj 566 130 + 95;
#X connect 1 0 12 0;
#X connect 1 0 10 0;
#X connect 1 0 9 0;
#X connect 1 0 11 0;
#X connect 1 0 15 0;
#X connect 2 0 10 1;
#X connect 2 0 9 1;
#X connect 2 0 11 1;
#X connect 2 0 12 1;
#X connect 5 0 13 0;
#X connect 6 0 13 0;
#X connect 7 0 13 0;
#X connect 8 0 13 0;
#X connect 9 0 7 0;
#X connect 10 0 5 0;
#X connect 11 0 6 0;
#X connect 12 0 8 0;
#X connect 13 0 0 0;
#X connect 14 0 16 0;
#X connect 15 0 14 0;
#X connect 16 0 17 0;
#X connect 17 0 18 0;
#X connect 18 0 13 1;
