#N canvas 267 595 624 475 10;
#X declare -path control;
#X declare -path fx;
#X declare -path instrument;
#X declare -path scales;
#X declare -path metapdlibs/control;
#X declare -path metapdlibs/fx;
#X declare -path metapdlibs/instrument;
#X declare -path metapdlibs/scales;
#X obj 17 7 inlet;
#X obj 59 7 inlet;
#X obj 102 6 inlet;
#X obj 146 6 inlet;
#X obj 234 13 inlet;
#X obj 346 18 loadMetaPdLibs;
#X floatatom 62 42 5 0 0 0 - - -, f 5;
#X floatatom 24 41 5 0 0 0 - - -, f 5;
#X floatatom 107 43 5 0 0 0 - - -, f 5;
#X floatatom 147 42 5 0 0 0 - - -, f 5;
#X obj 33 383 outlet~;
#X obj 129 265 pack;
#X obj 36 352 s_fmoscil basssynth;
#X obj 65 240 makenote 100 20;
#X obj 34 129 m_majorscale 36;
#X obj 170 300 loadbang;
#X floatatom 296 374 5 0 0 0 - - -, f 5;
#X obj 296 393 list prepend index;
#X floatatom 179 371 5 0 0 0 - - -, f 5;
#X obj 179 390 list prepend ratio;
#X msg 163 332 ratio 4 \, index 62 \, mR 292 \, mS 8 \, mD 20 \, mA
0 \, R 120 \, S 50 \, D 55 \, A 7 \,;
#N canvas 1472 620 624 500 velocity 0;
#X obj 87 53 inlet;
#X obj 197 48 inlet;
#X obj 287 36 inlet;
#X obj 80 469 outlet;
#X obj 239 197 cos;
#X obj 235 243 abs;
#X obj 212 92 / 100;
#X obj 230 295 *;
#X floatatom 236 266 5 0 0 0 - - -, f 5;
#X obj 239 221 * 30;
#X floatatom 230 320 5 0 0 0 - - -, f 5;
#X obj 232 344 + 20;
#X floatatom 236 404 5 0 0 0 - - -, f 5;
#X obj 232 364 min 127;
#X obj 242 171 * 7;
#X obj 212 132 * 11;
#X obj 237 384 max 20;
#X floatatom 189 343 5 0 0 0 - - -, f 5;
#X floatatom 181 173 5 0 0 0 - - -, f 5;
#X text 288 172 beat;
#X text 292 345 offset;
#X text 261 110 index;
#X floatatom 166 95 5 0 0 0 - - -, f 5;
#X connect 0 0 22 0;
#X connect 1 0 17 0;
#X connect 2 0 18 0;
#X connect 4 0 9 0;
#X connect 5 0 7 0;
#X connect 5 0 8 0;
#X connect 6 0 7 1;
#X connect 6 0 15 0;
#X connect 7 0 10 0;
#X connect 9 0 5 0;
#X connect 10 0 11 0;
#X connect 11 0 13 0;
#X connect 12 0 3 0;
#X connect 13 0 16 0;
#X connect 14 0 4 0;
#X connect 15 0 14 1;
#X connect 16 0 12 0;
#X connect 17 0 11 1;
#X connect 18 0 14 0;
#X connect 22 0 6 0;
#X restore 137 103 pd velocity;
#X floatatom 146 130 5 0 0 0 - - -, f 5;
#X obj 28 103 note-bass;
#X floatatom 41 151 5 0 0 0 - - -, f 5;
#N canvas 1497 588 753 529 tone 0;
#X floatatom 293 325 5 0 0 0 - - -, f 5;
#X obj 293 344 list prepend index;
#X floatatom 126 324 5 0 0 0 - - -, f 5;
#X obj 126 343 list prepend ratio;
#X msg 158 204 4;
#X msg 278 227 62;
#X obj 21 28 inlet;
#X obj 359 11 inlet;
#X obj 506 51 % 100;
#X floatatom 505 102 5 0 0 0 - - -, f 5;
#X obj 510 121 cos;
#X obj 505 77 / 91;
#X floatatom 510 164 5 0 0 0 - - -, f 5;
#X obj 515 142 abs;
#X obj 136 288 +;
#X floatatom 513 212 5 0 0 0 - - -, f 5;
#X obj 515 258 *;
#X obj 21 48 / 127;
#X obj 179 396 outlet;
#X obj 361 36 t b b a a a;
#X floatatom 513 286 5 0 0 0 - - -, f 5;
#X floatatom 568 108 5 0 0 0 - - -, f 5;
#X obj 573 127 cos;
#X floatatom 573 170 5 0 0 0 - - -, f 5;
#X obj 578 148 abs;
#X obj 569 57 % 200;
#X obj 568 83 / 173;
#X floatatom 577 222 5 0 0 0 - - -, f 5;
#X obj 585 274 *;
#X floatatom 581 298 5 0 0 0 - - -, f 5;
#X obj 280 292 +;
#X obj 570 38 + 65;
#X obj 513 190 * 5;
#X obj 519 231 - 2.5;
#X obj 577 200 * 30;
#X obj 583 241 - 15;
#X obj 159 235 +;
#X obj 73 129 * 2;
#X obj 289 258 *;
#X obj 122 138 + 0.65;
#X connect 0 0 1 0;
#X connect 1 0 18 0;
#X connect 2 0 3 0;
#X connect 3 0 18 0;
#X connect 4 0 36 0;
#X connect 5 0 38 0;
#X connect 6 0 17 0;
#X connect 7 0 19 0;
#X connect 8 0 11 0;
#X connect 9 0 10 0;
#X connect 10 0 13 0;
#X connect 11 0 9 0;
#X connect 12 0 32 0;
#X connect 13 0 12 0;
#X connect 14 0 2 0;
#X connect 15 0 33 0;
#X connect 16 0 14 1;
#X connect 16 0 20 0;
#X connect 17 0 16 1;
#X connect 17 0 28 1;
#X connect 17 0 37 0;
#X connect 17 0 39 0;
#X connect 19 0 4 0;
#X connect 19 1 5 0;
#X connect 19 3 31 0;
#X connect 19 4 8 0;
#X connect 21 0 22 0;
#X connect 22 0 24 0;
#X connect 23 0 34 0;
#X connect 24 0 23 0;
#X connect 25 0 26 0;
#X connect 26 0 21 0;
#X connect 27 0 35 0;
#X connect 28 0 29 0;
#X connect 28 0 30 1;
#X connect 30 0 0 0;
#X connect 31 0 25 0;
#X connect 32 0 15 0;
#X connect 33 0 16 0;
#X connect 34 0 27 0;
#X connect 35 0 28 0;
#X connect 36 0 14 0;
#X connect 37 0 36 1;
#X connect 38 0 30 0;
#X connect 39 0 38 1;
#X restore 233 108 pd tone;
#X connect 0 0 7 0;
#X connect 1 0 6 0;
#X connect 2 0 8 0;
#X connect 3 0 9 0;
#X connect 4 0 21 2;
#X connect 4 0 23 1;
#X connect 4 0 25 1;
#X connect 6 0 21 0;
#X connect 7 0 23 0;
#X connect 8 0 25 0;
#X connect 9 0 21 1;
#X connect 11 0 12 0;
#X connect 12 0 10 0;
#X connect 13 0 11 0;
#X connect 13 1 11 1;
#X connect 14 0 13 0;
#X connect 14 0 24 0;
#X connect 15 0 20 0;
#X connect 16 0 17 0;
#X connect 17 0 12 1;
#X connect 18 0 19 0;
#X connect 19 0 12 1;
#X connect 20 0 12 1;
#X connect 21 0 13 1;
#X connect 21 0 22 0;
#X connect 23 0 14 0;
#X connect 25 0 12 1;
