#N canvas 686 740 1362 500 10;
#X obj 77 81 inlet;
#X obj 320 37 inlet;
#X obj 320 59 / 127;
#X obj 244 123 moses 1;
#X obj 299 122 moses 2;
#X obj 356 122 moses 3;
#X obj 65 295 % 16;
#X obj 222 292 % 16;
#X obj 457 287 % 16;
#X obj 478 342 1;
#X obj 648 286 % 16;
#X obj 669 341 1;
#X obj 843 288 % 16;
#X obj 879 339 1;
#X obj 66 268 spigot;
#X obj 111 269 tgl 15 0 empty empty empty 17 7 0 10 -262144 -1 -1 0.107023
1;
#X obj 143 269 spigot;
#X obj 188 270 tgl 15 0 empty empty empty 17 7 0 10 -262144 -1 -1 0
1;
#X obj 221 268 spigot;
#X obj 266 269 tgl 15 0 empty empty empty 17 7 0 10 -262144 -1 -1 0
1;
#X obj 309 268 spigot;
#X obj 354 269 tgl 15 0 empty empty empty 17 7 0 10 -262144 -1 -1 0
1;
#X obj 459 266 spigot;
#X obj 504 267 tgl 15 0 empty empty empty 17 7 0 10 -262144 -1 -1 0
1;
#X obj 649 262 spigot;
#X obj 694 263 tgl 15 0 empty empty empty 17 7 0 10 -262144 -1 -1 0
1;
#X obj 841 264 spigot;
#X obj 886 265 tgl 15 0 empty empty empty 17 7 0 10 -262144 -1 -1 0
1;
#X obj 1072 261 spigot;
#X obj 1117 262 tgl 15 0 empty empty empty 17 7 0 10 -262144 -1 -1
0 1;
#X obj 320 81 * 8;
#X obj 409 122 moses 4;
#X obj 463 122 moses 5;
#X obj 516 123 moses 6;
#X obj 567 123 moses 7;
#X obj 620 123 moses 8;
#X floatatom 273 75 5 0 0 0 - - -, f 5;
#X obj 84 238 r \$0-b1;
#X obj 160 241 r \$0-b2;
#X obj 1240 372 outlet;
#X obj 1238 347 r \$0-out;
#X obj 80 105 s \$0-in;
#X obj 65 347 s \$0-out;
#X obj 142 344 s \$0-out;
#X obj 223 367 s \$0-out;
#X obj 478 369 s \$0-out;
#X obj 313 370 s \$0-out;
#X obj 664 371 s \$0-out;
#X obj 874 365 s \$0-out;
#X obj 63 206 r \$0-in;
#X obj 217 209 r \$0-in;
#X obj 137 210 r \$0-in;
#X obj 311 213 r \$0-in;
#X obj 459 211 r \$0-in;
#X obj 833 217 r \$0-in;
#X obj 651 212 r \$0-in;
#X obj 1070 216 r \$0-in;
#X obj 240 238 r \$0-b3;
#X obj 321 241 r \$0-b4;
#X obj 475 239 r \$0-b5;
#X obj 670 231 r \$0-b6;
#X obj 1083 238 r \$0-b8;
#X obj 860 236 r \$0-b7;
#X obj 248 183 s \$0-b1;
#X obj 307 182 s \$0-b2;
#X obj 360 180 s \$0-b3;
#X obj 415 180 s \$0-b4;
#X obj 469 176 s \$0-b5;
#X obj 521 175 s \$0-b6;
#X obj 576 173 s \$0-b7;
#X obj 631 172 s \$0-b8;
#X msg 269 149 0;
#X msg 324 150 0;
#X msg 379 151 0;
#X msg 432 150 0;
#X msg 489 146 0;
#X msg 539 149 0;
#X msg 587 146 0;
#X msg 651 147 0;
#X obj 143 295 % 16;
#X obj 317 289 % 16;
#X obj 1068 287 % 16;
#X obj 1104 338 1;
#X obj 1099 364 s \$0-out;
#X obj 65 317 select 12;
#X obj 143 316 select 4 12;
#X obj 222 316 select 4 12 15;
#X obj 316 315 select 4 10 12 15;
#X obj 460 311 select 4 7 10 12 15;
#X obj 648 310 select 2 4 7 10 12 15;
#X obj 843 312 select 2 4 7 10 12 14 15;
#X obj 1068 311 select 2 4 5 7 10 12 14 15;
#X connect 0 0 41 0;
#X connect 1 0 2 0;
#X connect 2 0 30 0;
#X connect 3 0 63 0;
#X connect 3 0 71 0;
#X connect 3 1 4 0;
#X connect 4 0 64 0;
#X connect 4 0 72 0;
#X connect 4 1 5 0;
#X connect 5 0 65 0;
#X connect 5 0 73 0;
#X connect 5 1 31 0;
#X connect 6 0 84 0;
#X connect 7 0 86 0;
#X connect 8 0 88 0;
#X connect 9 0 45 0;
#X connect 10 0 89 0;
#X connect 11 0 47 0;
#X connect 12 0 90 0;
#X connect 13 0 48 0;
#X connect 14 0 6 0;
#X connect 15 0 14 1;
#X connect 16 0 79 0;
#X connect 17 0 16 1;
#X connect 18 0 7 0;
#X connect 19 0 18 1;
#X connect 20 0 80 0;
#X connect 21 0 20 1;
#X connect 22 0 8 0;
#X connect 23 0 22 1;
#X connect 24 0 10 0;
#X connect 25 0 24 1;
#X connect 26 0 12 0;
#X connect 27 0 26 1;
#X connect 28 0 81 0;
#X connect 29 0 28 1;
#X connect 30 0 3 0;
#X connect 30 0 36 0;
#X connect 31 0 66 0;
#X connect 31 0 74 0;
#X connect 31 1 32 0;
#X connect 32 0 67 0;
#X connect 32 0 75 0;
#X connect 32 1 33 0;
#X connect 33 0 68 0;
#X connect 33 0 76 0;
#X connect 33 1 34 0;
#X connect 34 0 69 0;
#X connect 34 0 77 0;
#X connect 34 1 35 0;
#X connect 35 0 70 0;
#X connect 35 0 78 0;
#X connect 37 0 15 0;
#X connect 38 0 17 0;
#X connect 40 0 39 0;
#X connect 49 0 14 0;
#X connect 50 0 18 0;
#X connect 51 0 16 0;
#X connect 52 0 20 0;
#X connect 53 0 22 0;
#X connect 54 0 26 0;
#X connect 55 0 24 0;
#X connect 56 0 28 0;
#X connect 57 0 19 0;
#X connect 58 0 21 0;
#X connect 59 0 23 0;
#X connect 60 0 25 0;
#X connect 61 0 29 0;
#X connect 62 0 27 0;
#X connect 71 0 64 0;
#X connect 72 0 63 0;
#X connect 72 0 65 0;
#X connect 73 0 64 0;
#X connect 73 0 66 0;
#X connect 74 0 65 0;
#X connect 74 0 67 0;
#X connect 75 0 66 0;
#X connect 75 0 68 0;
#X connect 76 0 67 0;
#X connect 76 0 69 0;
#X connect 77 0 68 0;
#X connect 77 0 70 0;
#X connect 78 0 69 0;
#X connect 79 0 85 0;
#X connect 80 0 87 0;
#X connect 81 0 91 0;
#X connect 82 0 83 0;
#X connect 84 0 42 0;
#X connect 85 0 43 0;
#X connect 85 1 43 0;
#X connect 86 0 44 0;
#X connect 86 1 44 0;
#X connect 86 2 44 0;
#X connect 87 0 46 0;
#X connect 87 1 46 0;
#X connect 87 2 46 0;
#X connect 87 3 46 0;
#X connect 88 0 9 0;
#X connect 88 1 9 0;
#X connect 88 2 9 0;
#X connect 88 3 9 0;
#X connect 88 4 9 0;
#X connect 89 0 11 0;
#X connect 89 1 11 0;
#X connect 89 2 11 0;
#X connect 89 3 11 0;
#X connect 89 4 11 0;
#X connect 89 5 11 0;
#X connect 90 0 13 0;
#X connect 90 1 13 0;
#X connect 90 2 13 0;
#X connect 90 3 13 0;
#X connect 90 4 13 0;
#X connect 90 5 13 0;
#X connect 90 6 13 0;
#X connect 91 0 82 0;
#X connect 91 1 82 0;
#X connect 91 2 82 0;
#X connect 91 3 82 0;
#X connect 91 4 82 0;
#X connect 91 5 82 0;
#X connect 91 6 82 0;
#X connect 91 7 82 0;
