#N canvas 573 606 1656 531 10;
#X declare -path control;
#X declare -path fx;
#X declare -path instrument;
#X declare -path scales;
#X declare -path metapdlibs/control;
#X declare -path metapdlibs/fx;
#X declare -path metapdlibs/instrument;
#X declare -path metapdlibs/scales;
#X obj 597 42 inlet;
#X obj 22 467 loadMetaPdLibs;
#X floatatom 71 168 5 0 0 0 - - -, f 5;
#X floatatom 22 168 5 0 0 0 - - -, f 5;
#X floatatom 124 169 5 0 0 0 - - -, f 5;
#X floatatom 177 168 5 0 0 0 - - -, f 5;
#X obj 601 468 outlet~;
#X obj 329 120 select 0;
#X obj 449 271 s_spad pad1;
#X obj 574 281 s_spad pad2;
#X obj 330 98 % 37;
#X msg 1139 227 mod3d 0 \, mod3c 0 \, mod3b 0.520079 \, mod3a 0 \,
mod2d 0 \, mod2c 0 \, mod2b 0 \, mod2a 0 \, mod1d 0 \, mod1c 0.284409
\, mod1b 0.103622 \, mod1a 0.724882 \, osc3d 0 \, osc3c 0 \, osc3b
0 \, osc3a 0 \, osc2d 0 \, osc2c 0 \, osc2b 0 \, osc2a 1 \, osc1d 0.646142
\, osc1c 0.974882 \, osc1b 0.244094 \, osc1a 0.228346 \, env3r 0 \,
env3s 0 \, env3d 0 \, env3a 0 \, env2r 0.5 \, env2s 0.8 \, env2d 0.0708661
\, env2a 0.00787402 \, env1r 0.6 \, env1s 0.6 \, env1d 0.25 \, env1a
0.4 \,;
#X obj 680 275 s_spad pad3;
#X obj 575 119 select 0;
#X obj 573 139 bng 15 250 50 0 empty empty empty 17 7 0 10 -262144
-1 -1;
#X obj 681 121 select 0;
#X obj 679 141 bng 15 250 50 0 empty empty empty 17 7 0 10 -262144
-1 -1;
#X obj 576 97 % 43;
#X obj 682 99 % 47;
#X obj 1141 203 loadbang;
#X obj 793 119 select 0;
#X obj 794 97 % 51;
#X obj 794 140 bng 15 250 50 0 empty empty empty 17 7 0 10 -262144
-1 -1;
#X obj 792 273 s_spad pad4;
#X obj 272 163 r \$0-c1;
#X obj 327 163 r \$0-c2;
#X obj 381 164 r \$0-c3;
#X obj 272 140 bng 15 250 50 0 empty empty empty 17 7 0 10 -262144
-1 -1;
#N canvas 1236 152 561 364 pad-note-maker 0;
#X obj 50 26 inlet;
#X obj 80 300 outlet;
#X obj 76 246 pack;
#X obj 72 198 m_majorscale 48;
#X obj 72 175 random 22;
#X obj 71 223 makenote 100 400;
#X obj 119 18 inlet;
#X floatatom 125 131 5 0 0 0 - - -, f 5;
#X obj 194 31 inlet;
#X obj 175 66 random 10;
#X obj 53 58 t a b b b;
#X obj 198 92 * 100;
#X obj 175 129 +;
#X floatatom 175 151 5 0 0 0 - - -, f 5;
#X obj 276 15 inlet;
#X obj 279 66 * 400;
#X obj 279 88 + 200;
#X obj 255 119 +;
#X floatatom 270 143 5 0 0 0 - - -, f 5;
#X obj 261 40 random 80;
#X obj 116 105 * 15;
#X obj 116 151 + 21;
#X floatatom 196 224 5 0 0 0 - - -, f 5;
#X connect 0 0 10 0;
#X connect 2 0 1 0;
#X connect 3 0 5 0;
#X connect 4 0 3 0;
#X connect 4 0 22 0;
#X connect 5 0 2 0;
#X connect 5 1 2 1;
#X connect 6 0 20 0;
#X connect 7 0 21 0;
#X connect 8 0 11 0;
#X connect 9 0 12 0;
#X connect 10 0 4 0;
#X connect 10 2 9 0;
#X connect 10 3 19 0;
#X connect 11 0 12 1;
#X connect 12 0 13 0;
#X connect 13 0 5 1;
#X connect 14 0 15 0;
#X connect 15 0 16 0;
#X connect 16 0 17 1;
#X connect 17 0 18 0;
#X connect 18 0 5 2;
#X connect 19 0 17 0;
#X connect 20 0 7 0;
#X connect 21 0 4 1;
#X restore 258 188 pd pad-note-maker;
#X obj 462 170 r \$0-c1;
#X obj 517 170 r \$0-c2;
#X obj 571 171 r \$0-c3;
#N canvas 1236 152 561 364 pad-note-maker 0;
#X obj 50 26 inlet;
#X obj 80 300 outlet;
#X obj 76 246 pack;
#X obj 72 198 m_majorscale 48;
#X obj 72 175 random 22;
#X obj 71 223 makenote 100 400;
#X obj 119 18 inlet;
#X floatatom 125 131 5 0 0 0 - - -, f 5;
#X obj 194 31 inlet;
#X obj 175 66 random 10;
#X obj 53 58 t a b b b;
#X obj 198 92 * 100;
#X obj 175 129 +;
#X floatatom 175 151 5 0 0 0 - - -, f 5;
#X obj 276 15 inlet;
#X obj 279 66 * 400;
#X obj 279 88 + 200;
#X obj 255 119 +;
#X floatatom 270 143 5 0 0 0 - - -, f 5;
#X obj 261 40 random 80;
#X obj 116 105 * 15;
#X obj 116 151 + 21;
#X floatatom 196 224 5 0 0 0 - - -, f 5;
#X connect 0 0 10 0;
#X connect 2 0 1 0;
#X connect 3 0 5 0;
#X connect 4 0 3 0;
#X connect 4 0 22 0;
#X connect 5 0 2 0;
#X connect 5 1 2 1;
#X connect 6 0 20 0;
#X connect 7 0 21 0;
#X connect 8 0 11 0;
#X connect 9 0 12 0;
#X connect 10 0 4 0;
#X connect 10 2 9 0;
#X connect 10 3 19 0;
#X connect 11 0 12 1;
#X connect 12 0 13 0;
#X connect 13 0 5 1;
#X connect 14 0 15 0;
#X connect 15 0 16 0;
#X connect 16 0 17 1;
#X connect 17 0 18 0;
#X connect 18 0 5 2;
#X connect 19 0 17 0;
#X connect 20 0 7 0;
#X connect 21 0 4 1;
#X restore 448 195 pd pad-note-maker;
#X obj 649 170 r \$0-c1;
#X obj 704 170 r \$0-c2;
#X obj 758 171 r \$0-c3;
#N canvas 1236 152 561 364 pad-note-maker 0;
#X obj 50 26 inlet;
#X obj 80 300 outlet;
#X obj 76 246 pack;
#X obj 72 198 m_majorscale 48;
#X obj 72 175 random 22;
#X obj 71 223 makenote 100 400;
#X obj 119 18 inlet;
#X floatatom 125 131 5 0 0 0 - - -, f 5;
#X obj 194 31 inlet;
#X obj 175 66 random 10;
#X obj 53 58 t a b b b;
#X obj 198 92 * 100;
#X obj 175 129 +;
#X floatatom 175 151 5 0 0 0 - - -, f 5;
#X obj 276 15 inlet;
#X obj 279 66 * 400;
#X obj 279 88 + 200;
#X obj 255 119 +;
#X floatatom 270 143 5 0 0 0 - - -, f 5;
#X obj 261 40 random 80;
#X obj 116 105 * 15;
#X obj 116 151 + 21;
#X floatatom 196 224 5 0 0 0 - - -, f 5;
#X connect 0 0 10 0;
#X connect 2 0 1 0;
#X connect 3 0 5 0;
#X connect 4 0 3 0;
#X connect 4 0 22 0;
#X connect 5 0 2 0;
#X connect 5 1 2 1;
#X connect 6 0 20 0;
#X connect 7 0 21 0;
#X connect 8 0 11 0;
#X connect 9 0 12 0;
#X connect 10 0 4 0;
#X connect 10 2 9 0;
#X connect 10 3 19 0;
#X connect 11 0 12 1;
#X connect 12 0 13 0;
#X connect 13 0 5 1;
#X connect 14 0 15 0;
#X connect 15 0 16 0;
#X connect 16 0 17 1;
#X connect 17 0 18 0;
#X connect 18 0 5 2;
#X connect 19 0 17 0;
#X connect 20 0 7 0;
#X connect 21 0 4 1;
#X restore 635 195 pd pad-note-maker;
#X obj 845 172 r \$0-c1;
#X obj 900 172 r \$0-c2;
#X obj 954 173 r \$0-c3;
#N canvas 1236 152 561 364 pad-note-maker 0;
#X obj 50 26 inlet;
#X obj 80 300 outlet;
#X obj 76 246 pack;
#X obj 72 198 m_majorscale 48;
#X obj 72 175 random 22;
#X obj 71 223 makenote 100 400;
#X obj 119 18 inlet;
#X floatatom 125 131 5 0 0 0 - - -, f 5;
#X obj 194 31 inlet;
#X obj 175 66 random 10;
#X obj 53 58 t a b b b;
#X obj 175 129 +;
#X floatatom 175 151 5 0 0 0 - - -, f 5;
#X obj 276 15 inlet;
#X obj 279 66 * 400;
#X obj 279 88 + 200;
#X obj 255 119 +;
#X floatatom 270 143 5 0 0 0 - - -, f 5;
#X obj 261 40 random 80;
#X obj 116 105 * 15;
#X obj 116 151 + 21;
#X floatatom 196 224 5 0 0 0 - - -, f 5;
#X obj 198 92 * 117;
#X connect 0 0 10 0;
#X connect 2 0 1 0;
#X connect 3 0 5 0;
#X connect 4 0 3 0;
#X connect 4 0 21 0;
#X connect 5 0 2 0;
#X connect 5 1 2 1;
#X connect 6 0 19 0;
#X connect 7 0 20 0;
#X connect 8 0 22 0;
#X connect 9 0 11 0;
#X connect 10 0 4 0;
#X connect 10 2 9 0;
#X connect 10 3 18 0;
#X connect 11 0 12 0;
#X connect 12 0 5 1;
#X connect 13 0 14 0;
#X connect 14 0 15 0;
#X connect 15 0 16 1;
#X connect 16 0 17 0;
#X connect 17 0 5 2;
#X connect 18 0 16 0;
#X connect 19 0 7 0;
#X connect 20 0 4 1;
#X connect 22 0 11 1;
#X restore 831 197 pd pad-note-maker;
#X obj 22 187 / 127;
#X obj 22 209 s \$0-c1;
#X obj 71 187 / 127;
#X obj 71 209 s \$0-c2;
#X obj 124 188 / 127;
#X obj 124 210 s \$0-c3;
#X obj 177 187 / 127;
#X obj 177 209 s \$0-c4;
#X obj 1157 377 r \$0-c4;
#X obj 1153 409 list prepend mod1b;
#X obj 1277 410 list prepend mod1d;
#X obj 1156 439 s \$0-synth-set;
#X obj 474 241 r \$0-synth-set;
#X obj 577 245 r \$0-synth-set;
#X obj 701 247 r \$0-synth-set;
#X obj 828 247 r \$0-synth-set;
#X floatatom 1209 379 5 0 0 0 - - -, f 5;
#X obj 1138 334 s \$0-synth-set;
#X obj 43 39 inlet;
#X obj 36 96 route /vol /int /hap /jaz;
#X obj 45 64 list trim;
#X obj 571 381 monovol;
#X obj 27 277 / 127;
#X obj 28 300 * 8;
#X obj 28 324 + 96;
#X obj 26 349 s \$0-mvol;
#X obj 648 372 r \$0-mvol;
#X connect 0 0 10 0;
#X connect 0 0 17 0;
#X connect 0 0 18 0;
#X connect 0 0 21 0;
#X connect 2 0 43 0;
#X connect 3 0 41 0;
#X connect 3 0 63 0;
#X connect 4 0 45 0;
#X connect 5 0 47 0;
#X connect 7 0 27 0;
#X connect 8 0 62 0;
#X connect 9 0 62 0;
#X connect 10 0 7 0;
#X connect 11 0 58 0;
#X connect 12 0 62 0;
#X connect 13 0 14 0;
#X connect 14 0 32 0;
#X connect 15 0 16 0;
#X connect 16 0 36 0;
#X connect 17 0 13 0;
#X connect 18 0 15 0;
#X connect 19 0 11 0;
#X connect 20 0 22 0;
#X connect 21 0 20 0;
#X connect 22 0 40 0;
#X connect 23 0 62 0;
#X connect 24 0 28 1;
#X connect 25 0 28 2;
#X connect 26 0 28 3;
#X connect 27 0 28 0;
#X connect 28 0 8 0;
#X connect 29 0 32 1;
#X connect 30 0 32 2;
#X connect 31 0 32 3;
#X connect 32 0 9 0;
#X connect 33 0 36 1;
#X connect 34 0 36 2;
#X connect 35 0 36 3;
#X connect 36 0 12 0;
#X connect 37 0 40 1;
#X connect 38 0 40 2;
#X connect 39 0 40 3;
#X connect 40 0 23 0;
#X connect 41 0 42 0;
#X connect 43 0 44 0;
#X connect 45 0 46 0;
#X connect 47 0 48 0;
#X connect 49 0 50 0;
#X connect 49 0 51 0;
#X connect 49 0 57 0;
#X connect 50 0 52 0;
#X connect 51 0 52 0;
#X connect 53 0 8 1;
#X connect 54 0 9 1;
#X connect 55 0 12 1;
#X connect 56 0 23 1;
#X connect 59 0 61 0;
#X connect 60 0 3 0;
#X connect 60 1 2 0;
#X connect 60 2 4 0;
#X connect 60 3 5 0;
#X connect 61 0 60 0;
#X connect 62 0 6 0;
#X connect 63 0 64 0;
#X connect 64 0 65 0;
#X connect 65 0 66 0;
#X connect 67 0 62 1;
