#N canvas 277 111 1125 680 10;
#X obj 169 27 inlet;
#X obj 169 49 / 127;
#X obj 93 113 moses 1;
#X obj 148 112 moses 2;
#X obj 205 112 moses 3;
#X obj 258 112 moses 4;
#X obj 312 112 moses 5;
#X obj 365 113 moses 6;
#X obj 416 113 moses 7;
#X obj 469 113 moses 8;
#X floatatom 122 65 5 0 0 0 - - -, f 5;
#X obj 97 173 s \$0-b1;
#X obj 156 172 s \$0-b2;
#X obj 209 170 s \$0-b3;
#X obj 264 170 s \$0-b4;
#X obj 318 166 s \$0-b5;
#X obj 370 165 s \$0-b6;
#X obj 425 163 s \$0-b7;
#X obj 480 162 s \$0-b8;
#X msg 118 139 0;
#X msg 173 140 0;
#X msg 228 141 0;
#X msg 281 140 0;
#X msg 338 136 0;
#X msg 388 139 0;
#X msg 436 136 0;
#X msg 500 137 0;
#X obj 742 86 inlet;
#X floatatom 879 346 5 0 0 0 - - -, f 5;
#X floatatom 440 334 5 0 0 0 - - -, f 5;
#X obj 701 252 select 0 1 2 3;
#X msg 677 284 0;
#X msg 717 284 1;
#X msg 752 285 2;
#X msg 820 284 5;
#X obj 701 225 random 5;
#X msg 787 284 4;
#X obj 724 315 t a;
#X floatatom 697 362 5 0 0 0 - - -, f 5;
#X obj 625 175 t b b b b b b;
#X obj 523 254 select 0 1 2 3;
#X msg 499 286 0;
#X msg 539 286 1;
#X msg 574 287 2;
#X msg 642 286 5;
#X msg 609 286 4;
#X obj 546 317 t a;
#X floatatom 519 368 5 0 0 0 - - -, f 5;
#X obj 523 227 random 3;
#X obj 443 424 spigot;
#X obj 492 425 tgl 15 0 empty empty empty 17 7 0 10 -262144 -1 -1 0
1;
#X msg 420 240 0;
#X obj 169 71 * 4;
#X obj 460 390 r \$0-b1;
#X obj 509 582 outlet;
#X obj 443 446 s \$0-out;
#X obj 511 559 r \$0-out;
#X obj 531 426 spigot;
#X obj 580 427 tgl 15 0 empty empty empty 17 7 0 10 -262144 -1 -1 1.51181
1;
#X obj 531 448 s \$0-out;
#X obj 721 395 spigot;
#X obj 770 396 tgl 15 0 empty empty empty 17 7 0 10 -262144 -1 -1 0
1;
#X obj 721 417 s \$0-out;
#X obj 879 402 spigot;
#X obj 928 403 tgl 15 0 empty empty empty 17 7 0 10 -262144 -1 -1 0
1;
#X obj 879 424 s \$0-out;
#X obj 548 392 r \$0-b2;
#X obj 738 361 r \$0-b3;
#X obj 896 368 r \$0-b4;
#X obj 130 293 * 21;
#X obj 134 328 + 7;
#X floatatom 140 358 5 0 0 0 - - -, f 5;
#X floatatom 231 25 5 0 0 0 - - -, f 5;
#X obj 233 63 s \$0-ctl-in;
#X obj 143 261 r \$0-ctl-in;
#X obj 139 385 s \$0-range;
#X obj 860 71 random 4;
#X obj 859 91 * 7;
#X floatatom 856 115 5 0 0 0 - - -, f 5;
#X obj 856 134 s \$0-offset;
#X obj 927 186 r \$0-range;
#X obj 420 262 +;
#X obj 398 291 r \$0-offset;
#X obj 562 364 r \$0-offset;
#X obj 896 311 r \$0-offset;
#X obj 770 325 r \$0-offset;
#X obj 873 222 random 22;
#X obj 724 337 +;
#X obj 546 339 +;
#X connect 0 0 1 0;
#X connect 0 0 72 0;
#X connect 1 0 52 0;
#X connect 1 0 73 0;
#X connect 2 0 11 0;
#X connect 2 0 19 0;
#X connect 2 1 3 0;
#X connect 3 0 12 0;
#X connect 3 0 20 0;
#X connect 3 1 4 0;
#X connect 4 0 13 0;
#X connect 4 0 21 0;
#X connect 4 1 5 0;
#X connect 5 0 14 0;
#X connect 5 0 22 0;
#X connect 5 1 6 0;
#X connect 6 0 15 0;
#X connect 6 0 23 0;
#X connect 6 1 7 0;
#X connect 7 0 16 0;
#X connect 7 0 24 0;
#X connect 7 1 8 0;
#X connect 8 0 17 0;
#X connect 8 0 25 0;
#X connect 8 1 9 0;
#X connect 9 0 18 0;
#X connect 9 0 26 0;
#X connect 19 0 12 0;
#X connect 20 0 11 0;
#X connect 20 0 13 0;
#X connect 21 0 12 0;
#X connect 21 0 14 0;
#X connect 22 0 13 0;
#X connect 22 0 15 0;
#X connect 23 0 14 0;
#X connect 23 0 16 0;
#X connect 24 0 15 0;
#X connect 24 0 17 0;
#X connect 25 0 16 0;
#X connect 25 0 18 0;
#X connect 26 0 17 0;
#X connect 27 0 39 0;
#X connect 28 0 63 0;
#X connect 29 0 49 0;
#X connect 30 0 31 0;
#X connect 30 1 32 0;
#X connect 30 2 33 0;
#X connect 30 3 36 0;
#X connect 30 4 34 0;
#X connect 31 0 37 0;
#X connect 32 0 37 0;
#X connect 33 0 37 0;
#X connect 34 0 37 0;
#X connect 35 0 30 0;
#X connect 36 0 37 0;
#X connect 37 0 87 0;
#X connect 38 0 60 0;
#X connect 39 0 51 0;
#X connect 39 1 48 0;
#X connect 39 2 35 0;
#X connect 39 3 86 0;
#X connect 39 5 76 0;
#X connect 40 0 41 0;
#X connect 40 1 42 0;
#X connect 40 2 43 0;
#X connect 40 3 45 0;
#X connect 40 4 44 0;
#X connect 41 0 46 0;
#X connect 42 0 46 0;
#X connect 43 0 46 0;
#X connect 44 0 46 0;
#X connect 45 0 46 0;
#X connect 46 0 88 0;
#X connect 47 0 57 0;
#X connect 48 0 40 0;
#X connect 49 0 55 0;
#X connect 50 0 49 1;
#X connect 51 0 81 0;
#X connect 52 0 2 0;
#X connect 52 0 10 0;
#X connect 53 0 50 0;
#X connect 56 0 54 0;
#X connect 57 0 59 0;
#X connect 58 0 57 1;
#X connect 60 0 62 0;
#X connect 61 0 60 1;
#X connect 63 0 65 0;
#X connect 64 0 63 1;
#X connect 66 0 58 0;
#X connect 67 0 61 0;
#X connect 68 0 64 0;
#X connect 69 0 70 0;
#X connect 70 0 71 0;
#X connect 71 0 75 0;
#X connect 74 0 69 0;
#X connect 76 0 77 0;
#X connect 77 0 78 0;
#X connect 78 0 79 0;
#X connect 80 0 86 1;
#X connect 81 0 29 0;
#X connect 82 0 81 1;
#X connect 83 0 88 1;
#X connect 85 0 87 1;
#X connect 86 0 28 0;
#X connect 87 0 38 0;
#X connect 88 0 47 0;
